<svg id="Group_75590" data-name="Group 75590" xmlns="http://www.w3.org/2000/svg" width="128.744" height="26.138" viewBox="0 0 128.744 26.138">
  <path id="Path_2490" data-name="Path 2490" d="M-238,208.979h-8.058l-.07-.253a3.224,3.224,0,0,1,.745-.276c1.024-.114,1.333-.687,1.32-1.674-.04-3.267-.012-6.536-.012-9.8,0-1.752,0-1.75-1.684-2.193-.088-.023-.157-.117-.429-.33a7.251,7.251,0,0,1,1.23-.219c3.4.042,6.811-.022,10.2.225a10.883,10.883,0,0,1,4.085,1.4,2.466,2.466,0,0,1,.243,4.246,14.084,14.084,0,0,1-2.7,1.385c-.972.432-1.073.692-.328,1.426,1.623,1.6,3.243,3.205,4.924,4.743a3.535,3.535,0,0,0,1.618.759,1.073,1.073,0,0,0,1.4-1.172c.024-3.747.013-7.5.009-11.242,0-.834-.542-1.091-1.265-1.157-.47-.042-.938-.119-1.406-.181l.011-.344c.791-.046,1.583-.13,2.374-.132,13.508-.038,27.015-.087,40.522-.052a4.791,4.791,0,0,1,2.732,1.044c.525.415.6,1.394.881,2.121l-.322.24a3.533,3.533,0,0,1-1.02-.455,8.9,8.9,0,0,0-6.746-2.27c-2.772.108-2.775.028-2.775,2.775,0,1.114,0,2.229,0,3.431,2.036.071,4,.4,5.31-1.592a.81.81,0,0,1,.667-.325c.171.039.364.391.38.616a28.355,28.355,0,0,1,.078,2.849c-.009.29-.268.571-.42.872-.194-.1-.314-.123-.363-.194-1.251-1.8-3.143-1.634-4.971-1.584a.925.925,0,0,0-.635.646c0,1.554.087,3.109.157,4.663.039.878.6,1.156,1.391,1.32,3.548.731,6.627-.422,9.551-2.271.277-.175.568-.33.913-.53-.455,2.608-1.388,3.677-3.554,3.631-4.456-.095-8.916-.046-13.374-.065-.461,0-.921-.062-1.383-.1l-.034-.267a4.968,4.968,0,0,1,1.064-.229c.979,0,1.287-.475,1.277-1.407-.034-3.37-.015-6.74-.019-10.11,0-1.952-.244-2.148-2.311-1.789.061.775.123,1.565.2,2.592a4.3,4.3,0,0,1-.938-.631,5.675,5.675,0,0,0-4.949-2.106c-2.926.048-2.922.009-2.917,2.975.005,2.894,0,5.787,0,8.681,0,1.406.319,1.712,1.728,1.783a5.372,5.372,0,0,1,.957.223l-.041.3h-9.329l-.044-.268a11.232,11.232,0,0,1,1.762-.407,1.066,1.066,0,0,0,1.1-1.194c.017-3.847,0-7.693.007-11.54,0-.6-.306-.748-.836-.724-2.314.106-4.629.168-6.543,1.782a10.485,10.485,0,0,1-1.558.885l.414-2.294c-1.492-.395-1.827-.167-1.836,1.251-.021,3.336-.022,6.672-.021,10.008,0,1.531.183,1.724,1.691,1.975a1.617,1.617,0,0,1,.883.45,6.27,6.27,0,0,1-1,.162c-3.437.009-6.873,0-10.31,0a3.642,3.642,0,0,1-2.693-1.453c-1.175-1.273-2.306-2.587-3.45-3.889a3.282,3.282,0,0,0-3.049-1.284,1.038,1.038,0,0,0-.7.7c-.074,1.221-.053,2.449-.026,3.674a1.33,1.33,0,0,0,1.212,1.492,6.785,6.785,0,0,1,1.121.352Zm-.687-7.183a5.8,5.8,0,0,0,4.5-1.768c1.674-1.8,1.007-4.014-1.386-4.541-1.055-.232-2.14-.332-3.211-.5-1.134-.172-1.467.1-1.483,1.28-.018,1.323-.014,2.647-.013,3.97C-240.276,201.793-240.272,201.793-238.687,201.8Z" transform="translate(309.209 -183.017)" fill="#f9c100"/>
  <path id="Path_2491" data-name="Path 2491" d="M-379.636,180.3c.143.274.166.4.238.443,3.479,2.07,5.866,5.348,8.812,8,2,1.8,4.078,3.268,6.814,3.585a3.542,3.542,0,0,1,.611.214c-3.124,0-6.1.041-9.08-.036a2.836,2.836,0,0,1-1.668-.781c-2.81-2.618-5.517-5.349-8.362-7.926a11.271,11.271,0,0,0-5.5-3.153,4.726,4.726,0,0,1-1.285-.366c1.264-.116,2.526-.241,3.79-.344a11.561,11.561,0,0,0,6.123-2.007,5.021,5.021,0,0,0,.009-8.45,10.724,10.724,0,0,0-5.891-2.045c-1.559-.1-3.129-.022-4.694-.05-.8-.014-1.075.392-1.086,1.133-.056,3.605-.149,7.21-.191,10.815-.03,2.6-.015,5.207.012,7.81a19.547,19.547,0,0,0,.194,2.632,2.687,2.687,0,0,0,2.185,2.162c.48.146.981.225,1.46.417h-13.32c.887-.22,1.511-.347,2.118-.531a2.23,2.23,0,0,0,1.713-2.159c.141-2.607.337-5.216.357-7.825.027-3.6-.077-7.208-.147-10.812-.05-2.531-.4-2.933-2.872-3.507a4.731,4.731,0,0,1-1.185-.4h1.125c5.717,0,11.434-.033,17.15.027a14.959,14.959,0,0,1,7.55,1.785,8.478,8.478,0,0,1,2.232,1.734,4.413,4.413,0,0,1-.941,6.883,37.575,37.575,0,0,1-5.059,2.327C-378.79,180.039-379.173,180.139-379.636,180.3Z" transform="translate(400.488 -167.04)" fill="#f9c100"/>
  <path id="Path_2492" data-name="Path 2492" d="M-327.342,167.132c2.262,0,4.43-.027,6.6.03a1.3,1.3,0,0,1,.9.657q4.428,8.909,8.777,17.858a1.68,1.68,0,0,1,.054,1.226c-.785,1.917-1.629,3.811-2.5,5.693-.122.265-.5.613-.712.586a1.276,1.276,0,0,1-.819-.624c-1.331-2.566-2.656-5.136-3.913-7.738-2.753-5.7-5.466-11.412-8.191-17.122A5.66,5.66,0,0,1-327.342,167.132Z" transform="translate(357.217 -167.046)" fill="#f9c100"/>
  <path id="Path_2493" data-name="Path 2493" d="M-294.962,167.13c2.29,0,4.464-.045,6.633.045.358.015.812.563,1.016.969,1.777,3.522,3.506,7.069,5.254,10.606,1.1,2.226,2.248,4.43,3.288,6.684a2.388,2.388,0,0,1,.051,1.7c-.725,1.831-1.567,3.618-2.4,5.406-.126.271-.47.674-.64.641a1.47,1.47,0,0,1-.93-.621c-.7-1.281-1.336-2.6-1.973-3.919q-5.065-10.472-10.117-20.95A5.669,5.669,0,0,1-294.962,167.13Z" transform="translate(338.062 -167.042)" fill="#f9c100"/>
  <path id="Path_2494" data-name="Path 2494" d="M8.919.533Q6.8,1.786,4.7,3.054c-.483.291-1.012.507-1.148,1.188-.077.386-.63.515-.994.339a.778.778,0,0,1-.406-.953.713.713,0,0,1,.986-.471.729.729,0,0,0,.711-.114Q6.192,1.635,8.54.234L8.935,0C8.154.052,7.4.158,6.645.269a12.913,12.913,0,0,1-5.381.04C1.067.255.971.317.9.505.623,1.2.335,1.887.05,2.577a.358.358,0,0,0,.195.529A4.576,4.576,0,0,1,1.686,4.343a9.633,9.633,0,0,1,1.271,2.4c.045.11.043.283.251.281a10.207,10.207,0,0,1,1.554.162c.255.037.438-.02.509-.322A8.682,8.682,0,0,1,6.395,4.322C7.218,2.977,8.2,1.743,9.13.472,9.032.4,8.974.5,8.919.533Z" transform="matrix(1, 0.017, -0.017, 1, 57.99, 0)" fill="#f9c100"/>
</svg>
