<svg xmlns="http://www.w3.org/2000/svg" width="13.929" height="8.738" viewBox="0 0 13.929 8.738">
  <g id="Group_384" data-name="Group 384" transform="translate(-2810.889 -442.922)">
    <path id="Path_563" data-name="Path 563" d="M2810.889,447.335a.458.458,0,0,1,.8-.306c.25.271.5.547.743.821q1.146,1.272,2.289,2.546c.085.1.125.088.2-.006.169-.208.344-.413.53-.606.094-.1.064-.149-.011-.233-.565-.621-1.125-1.246-1.687-1.868a.485.485,0,0,1-.15-.4.435.435,0,0,1,.31-.379.457.457,0,0,1,.507.145l1.049,1.165q.987,1.1,1.972,2.193c.072.08.106.088.182,0q3.169-3.64,6.343-7.276a.483.483,0,0,1,.492-.2.433.433,0,0,1,.344.33.467.467,0,0,1-.123.45q-.843.963-1.684,1.929l-5.031,5.767a.489.489,0,0,1-.851,0c-.285-.318-.575-.631-.854-.954-.08-.093-.119-.077-.189.006-.283.332-.572.66-.858.988a.464.464,0,0,1-.764.011q-1.711-1.9-3.419-3.793A.488.488,0,0,1,2810.889,447.335Z"/>
    <path id="Path_564" data-name="Path 564" d="M2971.481,453.724a.516.516,0,0,1-.143.336q-1.486,1.7-2.97,3.4c-.318.365-.635.731-.956,1.094a.461.461,0,0,1-.8-.2.479.479,0,0,1,.138-.433q1.151-1.315,2.3-2.633.8-.916,1.6-1.832a.462.462,0,0,1,.524-.168A.453.453,0,0,1,2971.481,453.724Z" transform="translate(-149.723 -9.942)"/>
  </g>
</svg>
