<svg xmlns="http://www.w3.org/2000/svg" width="21.334" height="21.335" viewBox="0 0 21.334 21.335">
  <path id="users-alt" d="M10.667,14.223a3.556,3.556,0,1,1,3.556-3.556A3.556,3.556,0,0,1,10.667,14.223Zm0-5.334a1.778,1.778,0,1,0,1.778,1.778A1.778,1.778,0,0,0,10.667,8.889ZM16,20.446a5.334,5.334,0,1,0-10.667,0,.889.889,0,1,0,1.778,0,3.556,3.556,0,1,1,7.111,0,.889.889,0,1,0,1.778,0ZM16,7.112a3.556,3.556,0,1,1,3.556-3.556A3.556,3.556,0,0,1,16,7.112Zm0-5.334a1.778,1.778,0,1,0,1.778,1.778A1.778,1.778,0,0,0,16,1.778Zm5.334,11.556A5.339,5.339,0,0,0,16,8a.889.889,0,0,0,0,1.778,3.556,3.556,0,0,1,3.556,3.556.889.889,0,1,0,1.778,0Zm-16-6.223A3.556,3.556,0,1,1,8.889,3.556,3.556,3.556,0,0,1,5.334,7.112Zm0-5.334A1.778,1.778,0,1,0,7.111,3.556,1.778,1.778,0,0,0,5.334,1.778ZM1.778,13.334A3.556,3.556,0,0,1,5.334,9.778.889.889,0,0,0,5.334,8,5.339,5.339,0,0,0,0,13.334a.889.889,0,1,0,1.778,0Z"/>
</svg>
