<svg xmlns="http://www.w3.org/2000/svg" width="17.27" height="20.148" viewBox="0 0 17.27 20.148">
  <path id="Icon_metro-file-pdf" data-name="Icon metro-file-pdf" d="M19.076,6.476a2.616,2.616,0,0,1,.54.855,2.6,2.6,0,0,1,.225.989V21.272a1.075,1.075,0,0,1-1.079,1.079H3.65a1.075,1.075,0,0,1-1.079-1.079V3.283A1.075,1.075,0,0,1,3.65,2.2H13.724a2.6,2.6,0,0,1,.989.225,2.616,2.616,0,0,1,.855.54ZM14.084,3.733V7.96h4.228a1.228,1.228,0,0,0-.247-.461L14.545,3.98a1.228,1.228,0,0,0-.461-.247ZM18.4,20.913V9.4H13.724A1.075,1.075,0,0,1,12.645,8.32V3.643H4.01v17.27H18.4Zm-5.779-6.667a8.555,8.555,0,0,0,.944.63,11.157,11.157,0,0,1,1.315-.079q1.653,0,1.99.551a.543.543,0,0,1,.022.585.032.032,0,0,1-.011.022l-.023.022v.011q-.067.427-.8.427a4.638,4.638,0,0,1-1.293-.225,8.2,8.2,0,0,1-1.462-.6,20.246,20.246,0,0,0-4.407.933q-1.72,2.946-2.721,2.946a.654.654,0,0,1-.315-.079L5.6,19.26q-.011-.011-.067-.056a.465.465,0,0,1-.067-.4,2.442,2.442,0,0,1,.63-1.029,5.434,5.434,0,0,1,1.484-1.085.164.164,0,0,1,.259.067.065.065,0,0,1,.022.045q.585-.956,1.2-2.215a17.161,17.161,0,0,0,1.169-2.946,9.089,9.089,0,0,1-.343-1.793A4.372,4.372,0,0,1,9.958,8.41q.124-.45.472-.45h.247a.474.474,0,0,1,.394.169.9.9,0,0,1,.1.765.244.244,0,0,1-.045.09.293.293,0,0,1,.011.09v.337a14.723,14.723,0,0,1-.157,2.159,5.688,5.688,0,0,0,1.642,2.676ZM6.146,18.866a4.964,4.964,0,0,0,1.54-1.776,6.409,6.409,0,0,0-.984.944A3.737,3.737,0,0,0,6.146,18.866ZM10.621,8.522a3.343,3.343,0,0,0-.023,1.484q.011-.079.079-.495,0-.034.079-.483a.253.253,0,0,1,.045-.09.032.032,0,0,1-.011-.022.023.023,0,0,0-.006-.017.023.023,0,0,1-.006-.017.647.647,0,0,0-.146-.4.032.032,0,0,1-.011.022v.022ZM9.227,15.954a16.492,16.492,0,0,1,3.193-.911,1.7,1.7,0,0,1-.146-.107,2.013,2.013,0,0,1-.18-.152,5.956,5.956,0,0,1-1.428-1.979,15.025,15.025,0,0,1-.933,2.215q-.337.63-.506.933Zm7.263-.18a2.691,2.691,0,0,0-1.574-.27,4.253,4.253,0,0,0,1.394.315,1.09,1.09,0,0,0,.2-.011q0-.011-.022-.034Z" transform="translate(-2.571 -2.203)" fill="#f9c100"/>
</svg>
