<svg xmlns="http://www.w3.org/2000/svg" width="19.25" height="19.121" viewBox="0 0 19.25 19.121">
  <g id="Group_310" data-name="Group 310" transform="translate(-817.321 -733.502)">
    <path id="Path_3" data-name="Path 3" d="M19.192,5.619A6.978,6.978,0,0,0,18.745,3.3,4.907,4.907,0,0,0,15.93.5,7.107,7.107,0,0,0,13.593.058C12.567.011,12.239,0,9.625,0S6.683.011,5.657.057A7.109,7.109,0,0,0,3.32.5a4.72,4.72,0,0,0-1.7,1.1A4.683,4.683,0,0,0,.505,3.3,6.977,6.977,0,0,0,.058,5.619C.011,6.638,0,6.964,0,9.56S.011,12.482.058,13.5a6.976,6.976,0,0,0,.447,2.321,4.682,4.682,0,0,0,1.11,1.693,4.719,4.719,0,0,0,1.7,1.1,7.1,7.1,0,0,0,2.336.444c1.027.047,1.354.057,3.968.057s2.942-.011,3.968-.057a7.105,7.105,0,0,0,2.336-.444,4.9,4.9,0,0,0,2.815-2.8,6.975,6.975,0,0,0,.447-2.321c.047-1.02.058-1.345.058-3.942S19.239,6.638,19.192,5.619Zm-1.733,7.8a5.259,5.259,0,0,1-.331,1.775A3.177,3.177,0,0,1,15.3,17.013a5.357,5.357,0,0,1-1.787.329c-1.015.046-1.319.056-3.889.056s-2.875-.01-3.889-.056a5.358,5.358,0,0,1-1.787-.329A2.985,2.985,0,0,1,2.842,16.3a2.96,2.96,0,0,1-.72-1.1,5.259,5.259,0,0,1-.331-1.775c-.046-1.008-.056-1.31-.056-3.863s.01-2.855.056-3.863a5.262,5.262,0,0,1,.331-1.775,2.962,2.962,0,0,1,.72-1.1,2.982,2.982,0,0,1,1.107-.715,5.356,5.356,0,0,1,1.787-.329c1.015-.046,1.319-.056,3.889-.056h0c2.57,0,2.874.01,3.889.056a5.358,5.358,0,0,1,1.787.329,3.176,3.176,0,0,1,1.827,1.814A5.254,5.254,0,0,1,17.46,5.7c.046,1.008.056,1.31.056,3.863S17.506,12.416,17.46,13.424Zm0,0" transform="translate(817.321 733.502)" fill="#e8e9eb"/>
    <path id="Path_4" data-name="Path 4" d="M129.513,124.539a4.91,4.91,0,1,0,4.974,4.909A4.942,4.942,0,0,0,129.513,124.539Zm0,8.1a3.187,3.187,0,1,1,3.229-3.187A3.208,3.208,0,0,1,129.513,132.635Zm0,0" transform="translate(697.433 613.614)" fill="#e8e9eb"/>
    <path id="Path_5" data-name="Path 5" d="M364.224,89.772a1.147,1.147,0,1,1-1.147-1.147A1.147,1.147,0,0,1,364.224,89.772Zm0,0" transform="translate(469.012 648.187)" fill="#e8e9eb"/>
  </g>
</svg>
