<svg xmlns="http://www.w3.org/2000/svg" width="16.362" height="12.898" viewBox="0 0 16.362 12.898">
  <path id="Path_1911" data-name="Path 1911" d="M917.222,243.525q-3.791,2.246-7.566,4.517c-.866.522-1.814.908-2.058,2.129-.137.692-1.129.923-1.781.607a1.394,1.394,0,0,1-.727-1.709,1.278,1.278,0,0,1,1.767-.844,1.307,1.307,0,0,0,1.273-.205q4.2-2.52,8.413-5.029l.708-.42c-1.4.092-2.753.283-4.105.483-3.212.474-6.423.952-9.644.071-.351-.1-.524.014-.657.351-.49,1.243-1.007,2.477-1.518,3.712a.641.641,0,0,0,.349.948,8.2,8.2,0,0,1,2.583,2.216,17.269,17.269,0,0,1,2.278,4.305c.081.2.076.507.45.5a18.291,18.291,0,0,1,2.785.29c.458.066.786-.036.912-.578a15.554,15.554,0,0,1,2.013-4.557c1.475-2.412,3.235-4.622,4.9-6.9C917.426,243.283,917.322,243.467,917.222,243.525Z" transform="translate(-901.239 -242.57)"/>
</svg>
