<svg xmlns="http://www.w3.org/2000/svg" width="65" height="24" viewBox="0 0 65 24">
  <g id="Group_927" data-name="Group 927" transform="translate(-0.313 0)">
    <rect id="Rectangle_662" data-name="Rectangle 662" width="65" height="24" rx="5" transform="translate(0.313 0)" fill="#efefef"/>
    <text id="RSS" transform="translate(32.313 16)" font-size="12" font-family="Poppins-Medium, Poppins" font-weight="500"><tspan x="0" y="0">RSS</tspan></text>
    <g id="Group_929" data-name="Group 929" transform="translate(9.713 4.133)">
      <path id="Path_550" data-name="Path 550" d="M2905.459,159.12a1.051,1.051,0,0,1-.625-.435.911.911,0,0,1,.359-1.3.171.171,0,0,0,.115-.183c-.008-.2-.008-.4,0-.6,0-.1-.031-.127-.13-.126q-.99.006-1.981,0a1.532,1.532,0,0,1-1.556-1.346,1.453,1.453,0,0,1,.493-1.324c.094-.086.078-.115-.005-.19a1.525,1.525,0,0,1,0-2.26c.088-.081.1-.114,0-.2a1.515,1.515,0,0,1-.389-1.7,1.536,1.536,0,0,1,1.393-.964q2.487-.008,4.975,0a1.541,1.541,0,0,1,1.392.966,1.514,1.514,0,0,1-.382,1.687c-.093.086-.105.121,0,.214a1.518,1.518,0,0,1,0,2.247c-.1.094-.088.129,0,.214a1.512,1.512,0,0,1,.381,1.687,1.549,1.549,0,0,1-1.408.967c-.676.006-1.351,0-2.027,0-.112,0-.151.024-.145.142.01.2,0,.409,0,.614a.121.121,0,0,0,.072.133.867.867,0,0,1,.532.916.885.885,0,0,1-.719.816.164.164,0,0,0-.039.023Zm.159-5.713c.8,0,1.606,0,2.409,0a.921.921,0,1,0,0-1.841q-2.417,0-4.833,0a1.171,1.171,0,0,0-.138.007.921.921,0,0,0,.148,1.834C2904.012,153.409,2904.815,153.407,2905.618,153.407Zm0-2.457c.808,0,1.616,0,2.424,0a.921.921,0,1,0-.021-1.84q-2.4,0-4.8,0a1.347,1.347,0,0,0-.153.007.92.92,0,0,0,.143,1.834C2904.01,150.952,2904.813,150.95,2905.615,150.949Zm.015,3.072H2903.8c-.225,0-.451-.007-.675,0a.92.92,0,1,0,.088,1.839q2.4,0,4.8,0a1.192,1.192,0,0,0,.258-.028.918.918,0,0,0-.239-1.813C2907.236,154.019,2906.433,154.021,2905.63,154.021Zm.287,4.183a.3.3,0,1,0-.31.3A.315.315,0,0,0,2905.917,158.2Z" transform="translate(-2897.75 -143.387)" stroke="#000" stroke-width="0.1"/>
      <path id="Path_551" data-name="Path 551" d="M2800.88,22.981a6.234,6.234,0,0,1,.181-.772,3.154,3.154,0,0,1,2.966-2.111c.128,0,.17-.039.2-.159a5.316,5.316,0,0,1,9.151-2.349,4.765,4.765,0,0,1,.947,1.531.335.335,0,0,0,.18.191,3.746,3.746,0,0,1-.8,7.01.348.348,0,0,1-.381-.084.3.3,0,0,1,.156-.489,4.333,4.333,0,0,0,.7-.237,3.024,3.024,0,0,0,1.807-2.84,2.983,2.983,0,0,0-1.805-2.835.723.723,0,0,1-.392-.416,4.679,4.679,0,0,0-4.893-2.982,4.731,4.731,0,0,0-4.07,3.629c-.024.11-.04.221-.062.332-.055.271-.166.358-.438.327a2.537,2.537,0,0,0-1.219.164,2.566,2.566,0,0,0-1.6,2.569,2.536,2.536,0,0,0,2.011,2.287,1.292,1.292,0,0,1,.178.045.3.3,0,0,1,.2.364.308.308,0,0,1-.354.223,3.177,3.177,0,0,1-2.627-2.7c0-.039,0-.083-.031-.115Z" transform="translate(-2800.88 -15.786)" stroke="#000" stroke-width="0.1"/>
      <path id="Path_552" data-name="Path 552" d="M2800.88,393.046a.382.382,0,0,1,.411-.248q2.632.005,5.263,0a.542.542,0,0,1,.2.022.3.3,0,0,1,0,.571.551.551,0,0,1-.2.022q-2.632,0-5.263,0a.381.381,0,0,1-.411-.248Z" transform="translate(-2800.88 -378.296)" stroke="#000" stroke-width="0.1"/>
      <path id="Path_553" data-name="Path 553" d="M3053.9,393.442H3051.3c-.041,0-.082,0-.123,0a.307.307,0,1,1,0-.613c.077,0,.153,0,.23,0h5.1a1.278,1.278,0,0,1,.169,0,.3.3,0,0,1,0,.605,1.22,1.22,0,0,1-.153,0Z" transform="translate(-3041.239 -378.323)" stroke="#000" stroke-width="0.1"/>
      <path id="Path_554" data-name="Path 554" d="M2940.257,243.2c.384,0,.768-.005,1.152,0a.3.3,0,0,1,.312.408.271.271,0,0,1-.207.185,1.047,1.047,0,0,1-.2.019q-1.067,0-2.134,0a.978.978,0,0,1-.138-.007.3.3,0,0,1-.285-.317.285.285,0,0,1,.3-.285c.4-.008.8,0,1.2,0Z" transform="translate(-2933.455 -234.453)" stroke="#000" stroke-width="0.1"/>
      <path id="Path_555" data-name="Path 555" d="M3029.483,243.36a.3.3,0,1,1,0,.6.3.3,0,1,1,0-.6Z" transform="translate(-3020.401 -234.606)" stroke="#000" stroke-width="0.1"/>
      <path id="Path_556" data-name="Path 556" d="M3057.7,243.67a.307.307,0,0,1-.309.3.3.3,0,0,1-.3-.306.3.3,0,0,1,.306-.3A.3.3,0,0,1,3057.7,243.67Z" transform="translate(-3047.241 -234.611)" stroke="#000" stroke-width="0.1"/>
      <path id="Path_557" data-name="Path 557" d="M2940.251,179.328c.384,0,.768-.005,1.152,0a.3.3,0,0,1,.314.406.271.271,0,0,1-.221.189,1.208,1.208,0,0,1-.183.016h-2.134a1.031,1.031,0,0,1-.137-.007.3.3,0,0,1-.287-.316.288.288,0,0,1,.3-.287c.24-.009.481,0,.721-.005h.476Z" transform="translate(-2933.451 -173.035)" stroke="#000" stroke-width="0.1"/>
      <path id="Path_558" data-name="Path 558" d="M3029.493,179.495a.306.306,0,0,1,.3.306.31.31,0,0,1-.311.3.3.3,0,0,1-.3-.308A.3.3,0,0,1,3029.493,179.495Z" transform="translate(-3020.402 -173.197)" stroke="#000" stroke-width="0.1"/>
      <path id="Path_559" data-name="Path 559" d="M3057.4,179.487a.307.307,0,0,1,.3.3.311.311,0,0,1-.308.3.3.3,0,0,1-.3-.3A.3.3,0,0,1,3057.4,179.487Z" transform="translate(-3047.236 -173.19)" stroke="#000" stroke-width="0.1"/>
      <path id="Path_560" data-name="Path 560" d="M2940.2,307.036c.384,0,.768,0,1.151,0,.257,0,.4.183.331.4a.272.272,0,0,1-.227.2,1.2,1.2,0,0,1-.183.014h-2.134a1,1,0,0,1-.168-.013.291.291,0,0,1-.256-.3.285.285,0,0,1,.258-.293c.157-.015.316-.011.475-.012.25,0,.5,0,.752,0Z" transform="translate(-2933.417 -295.831)" stroke="#000" stroke-width="0.1"/>
      <path id="Path_561" data-name="Path 561" d="M3029.792,307.51a.309.309,0,0,1-.3.3.3.3,0,1,1-.005-.6A.309.309,0,0,1,3029.792,307.51Z" transform="translate(-3020.401 -296.002)" stroke="#000" stroke-width="0.1"/>
      <path id="Path_562" data-name="Path 562" d="M3057.7,307.505a.308.308,0,0,1-.3.3.3.3,0,1,1,0-.6A.309.309,0,0,1,3057.7,307.505Z" transform="translate(-3047.24 -295.997)" stroke="#000" stroke-width="0.1"/>
    </g>
  </g>
</svg>
