<svg xmlns="http://www.w3.org/2000/svg" width="19.872" height="15.301" viewBox="0 0 19.872 15.301">
  <g id="Group_75680" data-name="Group 75680" transform="translate(-570.196 -611.688)">
    <path id="Path_3074" data-name="Path 3074" d="M580.114,622.633q-4.233,0-8.467,0c-.167,0-.25-.023-.278-.222-.176-1.219-.371-2.436-.559-3.654-.2-1.293-.39-2.587-.6-3.878a.693.693,0,0,1,.276-.762.67.67,0,0,1,.823.078q1.781,1.332,3.559,2.669a.934.934,0,0,0,1.52-.26c.991-1.486,2-2.962,2.964-4.464a.887.887,0,0,1,1.551.005c.965,1.5,1.973,2.978,2.964,4.464a.934.934,0,0,0,1.521.252q1.8-1.348,3.592-2.695a.646.646,0,0,1,.772-.055.634.634,0,0,1,.3.673c-.025.2-.062.394-.093.592q-.324,2.1-.647,4.2c-.146.946-.3,1.89-.436,2.837-.026.181-.094.217-.262.216q-3.757-.008-7.515,0Z" fill="#f9c100"/>
    <path id="Path_3075" data-name="Path 3075" d="M600.633,836.028q4.244,0,8.489,0c.2,0,.253.056.248.253-.014.538,0,1.076-.005,1.615a.938.938,0,0,1-1.034,1.041H592.946a.937.937,0,0,1-1.04-1.036c0-.552.007-1.1,0-1.656,0-.176.052-.216.221-.216Q596.378,836.032,600.633,836.028Z" transform="translate(-20.507 -211.943)" fill="#f9c100"/>
  </g>
</svg>
