<svg xmlns="http://www.w3.org/2000/svg" width="22" height="17.87" viewBox="0 0 22 17.87">
  <path id="Icon_awesome-twitter" data-name="Icon awesome-twitter" d="M19.739,7.834c.014.2.014.391.014.586A12.742,12.742,0,0,1,6.924,21.251,12.741,12.741,0,0,1,0,19.226a9.327,9.327,0,0,0,1.089.056,9.029,9.029,0,0,0,5.6-1.927,4.517,4.517,0,0,1-4.216-3.127,5.685,5.685,0,0,0,.852.07,4.768,4.768,0,0,0,1.187-.154A4.51,4.51,0,0,1,.893,9.719V9.663a4.541,4.541,0,0,0,2.038.572A4.516,4.516,0,0,1,1.535,4.2a12.816,12.816,0,0,0,9.3,4.719,5.091,5.091,0,0,1-.112-1.033,4.513,4.513,0,0,1,7.8-3.085,8.877,8.877,0,0,0,2.862-1.089A4.5,4.5,0,0,1,19.4,6.2,9.038,9.038,0,0,0,22,5.5a9.693,9.693,0,0,1-2.261,2.331Z" transform="translate(0 -3.381)" fill="#e8e9eb"/>
</svg>
