<svg xmlns="http://www.w3.org/2000/svg" width="459.203" height="381.47" viewBox="0 0 459.203 381.47">
  <g id="Inbox_cleanup-rafiki" data-name="Inbox cleanup-rafiki" transform="translate(-56.11 -105.423)">
    <g id="freepik--background-simple--inject-4" transform="translate(80.596 105.423)">
      <path id="Path_2854" data-name="Path 2854" d="M220.752,310.307c-48.279-11.214-89.264-5.921-123.7-53.229-32.565-44.715-23.423-84.2,9.947-118.1,87.191-88.53,173.933,24.063,282.665,42.11,94.735,15.726,122.35,172.121,40.724,226.582-26.3,17.561-77.979,33.726-108.755,10.066C278.552,384.567,287.113,325.7,220.752,310.307Z" transform="translate(-76.788 -105.422)" fill="#f9c100"/>
      <path id="Path_2855" data-name="Path 2855" d="M220.752,310.307c-48.279-11.214-89.264-5.921-123.7-53.229-32.565-44.715-23.423-84.2,9.947-118.1,87.191-88.53,173.933,24.063,282.665,42.11,94.735,15.726,122.35,172.121,40.724,226.582-26.3,17.561-77.979,33.726-108.755,10.066C278.552,384.567,287.113,325.7,220.752,310.307Z" transform="translate(-76.788 -105.422)" fill="#fff" opacity="0.9"/>
    </g>
    <g id="freepik--Shadow--inject-4" transform="translate(56.11 460.083)">
      <ellipse id="freepik--path--inject-4" cx="229.602" cy="13.405" rx="229.602" ry="13.405" fill="#f5f5f5"/>
    </g>
    <g id="freepik--Trash--inject-4" transform="translate(304.197 360.351)">
      <path id="Path_2856" data-name="Path 2856" d="M371.569,421.229a9.995,9.995,0,0,1-8.349,9.864,260.876,260.876,0,0,1-86.8,0,9.983,9.983,0,0,1-8.289-9.864V325.31H371.616Z" transform="translate(-265.146 -319.851)" fill="#f9c100"/>
      <path id="Path_2857" data-name="Path 2857" d="M268.08,326.77v13.464c6.229,2.309,26.68,4,51.749,4s45.556-1.693,51.749-4V326.77Z" transform="translate(-265.155 -319.582)" opacity="0.3"/>
      <path id="Path_2858" data-name="Path 2858" d="M373.975,337.3c0,3.043-23.494,5.506-53.691,5.506s-53.691-2.463-53.691-5.506l-.983-11.96H375.017Z" transform="translate(-265.61 -319.845)" fill="#f9c100"/>
      <ellipse id="Ellipse_129" data-name="Ellipse 129" cx="54.674" cy="5.495" rx="54.674" ry="5.495" fill="#f9c100"/>
      <ellipse id="Ellipse_130" data-name="Ellipse 130" cx="54.674" cy="5.495" rx="54.674" ry="5.495" opacity="0.3"/>
      <path id="Path_2859" data-name="Path 2859" d="M280.424,410.412h0a4.026,4.026,0,0,1-4.014-4.014V351.4a4.026,4.026,0,0,1,4.014-4.014h0a4.038,4.038,0,0,1,4.014,4.014V406.4a4.038,4.038,0,0,1-4.014,4.014Z" transform="translate(-263.621 -315.784)" opacity="0.2"/>
      <path id="Path_2860" data-name="Path 2860" d="M344.394,410.412h0a4.026,4.026,0,0,1-4.014-4.014V351.4a4.026,4.026,0,0,1,4.014-4.014h0a4.038,4.038,0,0,1,4.014,4.014V406.4a4.038,4.038,0,0,1-4.014,4.014Z" transform="translate(-251.839 -315.784)" opacity="0.2"/>
      <path id="Path_2861" data-name="Path 2861" d="M323.064,410.412h0a4.038,4.038,0,0,1-4.014-4.014V351.4a4.038,4.038,0,0,1,4.014-4.014h0a4.026,4.026,0,0,1,4.014,4.014V406.4a4.026,4.026,0,0,1-4.014,4.014Z" transform="translate(-255.767 -315.784)" opacity="0.2"/>
      <path id="Path_2862" data-name="Path 2862" d="M301.744,410.412h0a4.038,4.038,0,0,1-4.014-4.014V351.4a4.038,4.038,0,0,1,4.014-4.014h0a4.026,4.026,0,0,1,4.014,4.014V406.4a4.026,4.026,0,0,1-4.014,4.014Z" transform="translate(-259.694 -315.784)" opacity="0.2"/>
    </g>
    <g id="freepik--Character--inject-4" transform="translate(138.667 132.518)">
      <path id="Path_2863" data-name="Path 2863" d="M194.589,140.015a5.495,5.495,0,1,1-5.495-5.495,5.495,5.495,0,0,1,5.495,5.495Z" transform="translate(-115.185 -127.158)" fill="#263238"/>
      <path id="Path_2864" data-name="Path 2864" d="M184.66,141.184a.284.284,0,0,1-.26-.154,5.784,5.784,0,0,1,10.16-5.53.308.308,0,0,1-.118.4.3.3,0,0,1-.4-.118,5.19,5.19,0,1,0-9.118,4.962.3.3,0,0,1-.118.4.32.32,0,0,1-.142.036Z" transform="translate(-115.168 -127.534)" fill="#263238"/>
      <path id="Path_2865" data-name="Path 2865" d="M180.9,162.149a5.779,5.779,0,0,1-.829-11.5.284.284,0,0,1,.332.249.3.3,0,0,1-.249.332,5.188,5.188,0,0,0,1.5,10.267.3.3,0,1,1,.095.592A6.88,6.88,0,0,1,180.9,162.149Z" transform="translate(-116.746 -124.188)" fill="#263238"/>
      <path id="Path_2866" data-name="Path 2866" d="M205.718,169.581a5.72,5.72,0,0,1-3.126-.936.3.3,0,1,1,.32-.5,5.188,5.188,0,1,0,5.649-8.7.3.3,0,1,1,.32-.5,5.791,5.791,0,0,1,1.705,7.993,5.708,5.708,0,0,1-3.647,2.51,6.1,6.1,0,0,1-1.22.13Z" transform="translate(-111.713 -122.668)" fill="#263238"/>
      <circle id="Ellipse_131" data-name="Ellipse 131" cx="7.768" cy="7.768" r="7.768" transform="translate(63.062 14.455)" fill="#263238"/>
      <circle id="Ellipse_132" data-name="Ellipse 132" cx="10.302" cy="10.302" r="10.302" transform="translate(56.268 32.68) rotate(-45)" fill="#263238"/>
      <circle id="Ellipse_133" data-name="Ellipse 133" cx="11.392" cy="11.392" r="11.392" transform="translate(60.528 34.385)" fill="#263238"/>
      <circle id="Ellipse_134" data-name="Ellipse 134" cx="11.392" cy="11.392" r="11.392" transform="translate(69.613 55.02) rotate(-76.72)" fill="#263238"/>
      <path id="Path_2867" data-name="Path 2867" d="M229.756,187.5c0,.924,0,2.1.083,3.162s.083,2.2.154,3.3c.154,2.2.308,4.429.545,6.643q.639,6.667,1.788,13.275c.2,1.089.379,2.2.6,3.292l.521,2.688c.13.426,0,.343-.166.332s0,.213.7.213a14.9,14.9,0,0,0,5.139-1.48c.947-.426,1.918-.888,2.889-1.385s1.954-1.066,2.842-1.563l3.458,3.991a33.273,33.273,0,0,1-2.629,2.688,30.406,30.406,0,0,1-2.889,2.428,26.159,26.159,0,0,1-3.351,2.143,16.048,16.048,0,0,1-4.239,1.587,10.8,10.8,0,0,1-2.783.237,9.048,9.048,0,0,1-3.292-.829,8.692,8.692,0,0,1-2.878-2.179,10.432,10.432,0,0,1-1.658-2.664,14.982,14.982,0,0,1-.782-2.285l-.462-1.729c-.332-1.184-.6-2.309-.888-3.47a132,132,0,0,1-2.558-14.115c-.3-2.368-.533-4.737-.675-7.164-.071-1.184-.13-2.368-.166-3.624s0-2.368,0-3.778Z" transform="translate(-108.657 -117.452)" fill="#ffb573"/>
      <path id="Path_2868" data-name="Path 2868" d="M225.138,176.928c10.1,7.733,9.7,22.31,9.7,22.31l-18.071,4.322s-5.542-14.66-3.292-20.025C215.818,177.946,219.454,172.57,225.138,176.928Z" transform="translate(-109.782 -119.641)" fill="#f9c100"/>
      <path id="Path_2869" data-name="Path 2869" d="M225.138,176.928c10.1,7.733,9.7,22.31,9.7,22.31l-18.071,4.322s-5.542-14.66-3.292-20.025C215.818,177.946,219.454,172.57,225.138,176.928Z" transform="translate(-109.782 -119.641)" fill="#fff" opacity="0.7"/>
      <path id="Path_2870" data-name="Path 2870" d="M240.342,213.441l2.984-5.021,7.484,8.005s-5.364,3.434-10.93.983Z" transform="translate(-104.82 -113.547)" fill="#ffb573"/>
      <path id="Path_2871" data-name="Path 2871" d="M246.473,206.39l9.6,5.66-5.8,4.749-7.484-8.005Z" transform="translate(-104.284 -113.921)" fill="#ffb573"/>
      <path id="Path_2872" data-name="Path 2872" d="M175.49,412.623l10.326.995,6.418-24.193L181.9,388.43Z" transform="translate(-116.679 -80.392)" fill="#ffb573"/>
      <path id="Path_2873" data-name="Path 2873" d="M130.79,395.09l9.272,4.855,11.025-21.86-9.272-4.855Z" transform="translate(-124.912 -83.192)" fill="#ffb573"/>
      <path id="Path_2874" data-name="Path 2874" d="M143.451,393.55l-8.289-8.42a.817.817,0,0,0-1.089-.095l-7.614,5.6a1.693,1.693,0,0,0-.142,2.51c2.937,2.889,4.5,4.133,8.147,7.839,2.25,2.274,6.868,7.638,9.971,10.788s6.371.249,5.364-1.338c-4.524-7.105-5.281-11.569-5.566-15.181A2.736,2.736,0,0,0,143.451,393.55Z" transform="translate(-125.826 -81.048)" fill="#263238"/>
      <path id="Path_2875" data-name="Path 2875" d="M188.1,407.05H175.578a1.03,1.03,0,0,0-.983.758l-2.676,9.841a1.551,1.551,0,0,0,1.528,1.978h28.74c4.559,0,5.518-4.607,3.624-5.033-8.455-1.871-13.334-4.453-15.939-6.916a2.617,2.617,0,0,0-1.776-.628Z" transform="translate(-117.348 -76.963)" fill="#263238"/>
      <path id="Path_2876" data-name="Path 2876" d="M191.782,389.435l-3.3,12.469h-10.6l3.564-13.464Z" transform="translate(-116.239 -80.39)" opacity="0.2"/>
      <path id="Path_2877" data-name="Path 2877" d="M140.974,373.23l9.284,4.867-5.684,11.262-9.284-4.867Z" transform="translate(-124.083 -83.192)" opacity="0.2"/>
      <path id="Path_2878" data-name="Path 2878" d="M229.271,176.372s4.571,2-10.752,62.632l-42.56-3.683c2.214-17.254,3.15-27.935-2.049-64.206a127.357,127.357,0,0,1,18.284-.817,136.617,136.617,0,0,1,19.326,1.67A180.556,180.556,0,0,1,229.271,176.372Z" transform="translate(-116.97 -120.577)" fill="#f9c100"/>
      <path id="Path_2879" data-name="Path 2879" d="M229.271,176.372s4.571,2-10.752,62.632l-42.56-3.683c2.214-17.254,3.15-27.935-2.049-64.206a127.357,127.357,0,0,1,18.284-.817,136.617,136.617,0,0,1,19.326,1.67A180.556,180.556,0,0,1,229.271,176.372Z" transform="translate(-116.97 -120.577)" fill="#fff" opacity="0.7"/>
      <path id="Path_2880" data-name="Path 2880" d="M190.209,170h-5.27c-1.717,2.641,5.53,10.35,14.743,17.929,2.226-6.9,5.731-6.88,5.731-6.88Z" transform="translate(-114.985 -120.624)" fill="#fff"/>
      <path id="Path_2881" data-name="Path 2881" d="M206.3,171.57s1.078.154,3.659.746c1.705,2.641,2.664,9.248-2.368,15-1.978-7.105-5.388-6.466-5.388-6.466Z" transform="translate(-111.76 -120.334)" fill="#fff"/>
      <path id="Path_2882" data-name="Path 2882" d="M193.139,152.05c.687,6.324.912,17.763-3.789,21.6,0,0,5.021,5.139,15.2,10.8,7.389-5.116,4.121-9.13,4.121-9.13-6.8-2.25-6.17-7.377-4.547-12.114Z" transform="translate(-114.126 -123.93)" fill="#ffb573"/>
      <path id="Path_2883" data-name="Path 2883" d="M196.471,155.9l6.5,6.6a19.773,19.773,0,0,0-.9,3.375c-2.605-.6-6.395-3.328-6.442-6.122a10.954,10.954,0,0,1,.841-3.849Z" transform="translate(-112.97 -123.221)" opacity="0.2"/>
      <path id="Path_2884" data-name="Path 2884" d="M213.18,134.63c4.358,3.86,5.637,13.263,1.492,19.646A86.446,86.446,0,0,1,213.18,134.63Z" transform="translate(-109.749 -127.138)" fill="#263238"/>
      <path id="Path_2885" data-name="Path 2885" d="M191.509,142.924c-.758,10.409-1.291,14.8,3.209,20.806,6.774,9.035,19.729,7.674,23.577-2.3,3.47-8.988,4.121-24.5-5.435-29.972a14.21,14.21,0,0,0-21.351,11.463Z" transform="translate(-113.822 -128.079)" fill="#ffb573"/>
      <path id="Path_2886" data-name="Path 2886" d="M190.592,151.533c7.7-.3,11.96-10.362,10.03-14.613,8.727,4.547,21.943,8.124,20.475,2.274-1.978-7.9-11.534-13.689-23.293-9.473C190.995,132.681,185.169,139.194,190.592,151.533Z" transform="translate(-114.291 -128.303)" fill="#263238"/>
      <path id="Path_2887" data-name="Path 2887" d="M188.293,148.561a7.7,7.7,0,0,0,3.055,4.962c2.179,1.551,4.168-.178,4.322-2.7.142-2.285-.817-5.838-3.375-6.383a3.422,3.422,0,0,0-4,4.121Z" transform="translate(-114.337 -125.343)" fill="#ffb573"/>
      <path id="Path_2888" data-name="Path 2888" d="M218.271,228.723s9.627,62.821,4.263,103.178c-4.062,30.493-30.268,96.286-30.268,96.286l-17.017-.462s17.573-63.768,21.209-88.814C202.676,296.02,187.1,226.07,187.1,226.07Z" transform="translate(-116.723 -110.296)" fill="#263238"/>
      <path id="Path_2889" data-name="Path 2889" d="M198.973,239.18,189.89,253.5a439.218,439.218,0,0,1,5.2,51.275C207.854,281.917,201.862,251.271,198.973,239.18Z" transform="translate(-114.027 -107.882)" opacity="0.2"/>
      <path id="Path_2890" data-name="Path 2890" d="M195.186,398.71l-21.386-.58,1.3-6.88,22.1.13Z" transform="translate(-116.99 -79.873)" fill="#f9c100"/>
      <path id="Path_2891" data-name="Path 2891" d="M216.208,228.2s-7.105,69.559-23.34,107.406c-13.133,30.552-44.442,79.423-44.442,79.423l-12.5-7.318s20.131-54.342,30.066-74.71c24.24-49.937,1.693-90,16.969-107.761Z" transform="translate(-123.967 -110.449)" fill="#263238"/>
      <path id="Path_2892" data-name="Path 2892" d="M150.111,388.832l-15.951-8.751,2.593-6.821,16.993,9.592Z" transform="translate(-124.292 -83.186)" fill="#f9c100"/>
      <path id="Path_2893" data-name="Path 2893" d="M175.637,223.092l-2.25,3.647c-.166.272.154.616.651.651l44.632,3.86c.379,0,.722-.13.758-.367l.722-3.778c0-.261-.272-.509-.687-.545l-43.1-3.73a.805.805,0,0,0-.722.261Z" transform="translate(-117.075 -110.894)" fill="#f9c100"/>
      <path id="Path_2894" data-name="Path 2894" d="M180.062,228.4l-1.184-.095c-.225,0-.391-.154-.367-.3l.971-4.9c0-.154.249-.249.474-.225l1.184.095c.237,0,.4.154.367.3l-.959,4.9A.47.47,0,0,1,180.062,228.4Z" transform="translate(-116.123 -110.884)" fill="#263238"/>
      <path id="Path_2895" data-name="Path 2895" d="M209.092,230.909l-1.184-.095c-.237,0-.4-.154-.367-.3l.971-4.9c0-.142.237-.249.462-.225l1.184.095c.225,0,.391.154.367.3l-.971,4.9C209.53,230.85,209.27,230.932,209.092,230.909Z" transform="translate(-110.777 -110.422)" fill="#263238"/>
      <path id="Path_2896" data-name="Path 2896" d="M194.572,229.661l-1.184-.107c-.225,0-.391-.154-.367-.3l.971-4.9c0-.142.237-.249.474-.225l1.184.107c.225,0,.391.154.367.3l-.971,4.9C195.022,229.578,194.808,229.672,194.572,229.661Z" transform="translate(-113.451 -110.654)" fill="#263238"/>
      <path id="Path_2897" data-name="Path 2897" d="M205.2,145.426c-.118.841.237,1.587.782,1.658s1.089-.545,1.184-1.385-.249-1.587-.793-1.658S205.31,144.586,205.2,145.426Z" transform="translate(-111.211 -125.406)" fill="#263238"/>
      <path id="Path_2898" data-name="Path 2898" d="M213.223,146.506c-.107.841.249,1.587.793,1.658s1.089-.545,1.184-1.385-.237-1.587-.782-1.658S213.341,145.666,213.223,146.506Z" transform="translate(-109.733 -125.207)" fill="#263238"/>
      <path id="Path_2899" data-name="Path 2899" d="M214,145.178l2.108-.308S214.876,146.3,214,145.178Z" transform="translate(-109.586 -125.252)" fill="#263238"/>
      <path id="Path_2900" data-name="Path 2900" d="M210.193,147.07a22.948,22.948,0,0,0,2.274,5.767A3.647,3.647,0,0,1,209.4,153Z" transform="translate(-110.433 -124.847)" fill="#ed893e"/>
      <path id="Path_2901" data-name="Path 2901" d="M205.85,151.577a6.9,6.9,0,0,0-3.907,3.233.209.209,0,0,0,.379.178,6.749,6.749,0,0,1,5.1-3.363.2.2,0,0,0,0-.4,7.222,7.222,0,0,0-1.575.355Z" transform="matrix(0.407, 0.914, -0.914, 0.407, 150.003, -218.838)" fill="#263238"/>
      <path id="Path_2902" data-name="Path 2902" d="M201.6,141.4a.462.462,0,0,1-.178-.13.4.4,0,0,1,0-.58,4.808,4.808,0,0,1,4.334-1.089.4.4,0,0,1,.272.509.414.414,0,0,1-.509.284,4.026,4.026,0,0,0-3.553.924.45.45,0,0,1-.367.083Z" transform="translate(-111.926 -126.247)" fill="#263238"/>
      <path id="Path_2903" data-name="Path 2903" d="M217.219,143.6a.5.5,0,0,1-.166-.107,4.074,4.074,0,0,0-3.4-1.421.391.391,0,0,1-.474-.343.414.414,0,0,1,.343-.474,4.867,4.867,0,0,1,4.133,1.682.414.414,0,0,1-.438.663Z" transform="translate(-109.738 -125.922)" fill="#263238"/>
      <path id="Path_2904" data-name="Path 2904" d="M225.646,220.744a19.1,19.1,0,0,1,36.378,11.676l-7.366,23.044L218.28,243.776Z" transform="translate(-108.798 -113.721)" fill="#f9c100"/>
      <path id="Path_2905" data-name="Path 2905" d="M225.646,220.744a19.1,19.1,0,0,1,36.378,11.676l-7.366,23.044L218.28,243.776Z" transform="translate(-108.798 -113.721)" opacity="0.3"/>
      <path id="Path_2906" data-name="Path 2906" d="M195.243,211l-6.655,20.723a2.368,2.368,0,0,0,1.539,3l33.631,10.8,7.389-23a19.1,19.1,0,0,1,24.015-12.339l-35.893-11.534A19.125,19.125,0,0,0,195.243,211Z" transform="translate(-114.288 -115.514)" fill="#f9c100"/>
      <path id="Path_2907" data-name="Path 2907" d="M209.881,227.067l9.272-28.859a.758.758,0,0,0-.6-.971l-9.473-1.4-1.184,3.742,6.9,2.214L206.98,226.12Z" transform="translate(-110.879 -115.864)" fill="#263238"/>
      <path id="Path_2908" data-name="Path 2908" d="M205.3,221.254a3.553,3.553,0,1,0,1.761-2.078,3.553,3.553,0,0,0-1.761,2.078Z" transform="translate(-111.221 -111.638)" fill="#263238"/>
      <path id="Path_2909" data-name="Path 2909" d="M220.043,241.53,266.7,256.51a1.35,1.35,0,0,0,1.705-.876h0a1.338,1.338,0,0,0-.876-1.705L218.29,238.12h0A2.712,2.712,0,0,0,220.043,241.53Z" transform="translate(-108.82 -108.077)" fill="#f9c100"/>
      <path id="Path_2910" data-name="Path 2910" d="M220.043,241.53l19.065,6.122a1.362,1.362,0,0,0,1.717-.876h0a1.362,1.362,0,0,0-.876-1.705L218.29,238.12h0A2.712,2.712,0,0,0,220.043,241.53Z" transform="translate(-108.82 -108.077)" opacity="0.2"/>
      <path id="Path_2911" data-name="Path 2911" d="M182.029,186.279l-.651.722-.734.841c-.5.568-.995,1.184-1.468,1.764-.971,1.184-1.895,2.451-2.759,3.73a63.484,63.484,0,0,0-8.36,16.507c-.474,1.468-.912,2.937-1.255,4.441-.118.438-.13.616-.189.817a4.97,4.97,0,0,0,0,.521,2.723,2.723,0,0,0,0,.557c0,.213.4.711,1.374,1.184a15.05,15.05,0,0,0,3.659,1.113,50.142,50.142,0,0,0,9.213.6,93.885,93.885,0,0,0,9.758-.628c3.268-.343,6.584-.77,9.793-1.255l1.291,5.128a108.461,108.461,0,0,1-20.309,4.512,50.921,50.921,0,0,1-10.954.237,22.5,22.5,0,0,1-6.087-1.445,13.629,13.629,0,0,1-3.268-1.871,10.657,10.657,0,0,1-2.842-3.4,12.079,12.079,0,0,1-.912-7.97,52.1,52.1,0,0,1,1.184-5.376,61.579,61.579,0,0,1,3.695-10.2,70.328,70.328,0,0,1,5.341-9.473c1.018-1.5,2.108-2.96,3.245-4.393.58-.711,1.184-1.409,1.776-2.108l.959-1.03c.343-.367.616-.663,1.089-1.113Z" transform="translate(-120.08 -119.021)" fill="#ffb573"/>
      <path id="Path_2912" data-name="Path 2912" d="M191.581,212.813l8.289-4.393.367,8.905s-5.921,2.451-9.308-.249Z" transform="translate(-113.835 -113.547)" fill="#ffb573"/>
      <path id="Path_2913" data-name="Path 2913" d="M205.311,207.85l-1.243,8.206-5.21,1.374-.367-8.905Z" transform="translate(-112.443 -113.652)" fill="#ffb573"/>
      <path id="Path_2914" data-name="Path 2914" d="M175.859,171.027c-5.222.924-12.529,15.892-12.529,15.892l13.156,11.842s10.456-11.416,9.9-18.213C185.912,174.8,182.5,169.843,175.859,171.027Z" transform="translate(-118.919 -120.467)" fill="#f9c100"/>
      <path id="Path_2915" data-name="Path 2915" d="M175.859,171.027c-5.222.924-12.529,15.892-12.529,15.892l13.156,11.842s10.456-11.416,9.9-18.213C185.912,174.8,182.5,169.843,175.859,171.027Z" transform="translate(-118.919 -120.467)" fill="#fff" opacity="0.7"/>
      <path id="Path_2916" data-name="Path 2916" d="M144.754,396.617a1.589,1.589,0,0,1-.414,0c-1.314-.071-2.712-2.084-3.434-3.268a.2.2,0,0,1,0-.225.189.189,0,0,1,.213-.083c.426.083,4.109.912,4.571,2.155a.829.829,0,0,1-.142.805,1.563,1.563,0,0,1-.793.616Zm-3.233-3.008c1.054,1.622,2.1,2.593,2.842,2.641a.983.983,0,0,0,.853-.462.379.379,0,0,0,.083-.4C145.014,394.628,142.8,393.917,141.521,393.609Z" transform="translate(-123.055 -79.544)" fill="#f9c100"/>
      <path id="Path_2917" data-name="Path 2917" d="M144.377,393.658a7.484,7.484,0,0,1-3.351.142.282.282,0,0,1-.142-.355c.095-.083,2.25-2.191,3.754-2.084a1.184,1.184,0,0,1,.947.5.853.853,0,0,1,.095,1.042,2.368,2.368,0,0,1-1.3.758Zm-2.854-.189c1.184.166,3.4-.13,3.86-.805.071-.107.13-.272-.083-.545a.793.793,0,0,0-.639-.343c-1.03-.071-2.522,1.137-3.138,1.693Z" transform="translate(-123.058 -79.853)" fill="#f9c100"/>
      <path id="Path_2918" data-name="Path 2918" d="M189.849,408.788a16.473,16.473,0,0,1-3.4-.438.2.2,0,0,1,0-.379c.509-.249,5.045-2.368,6.181-1.563a.687.687,0,0,1,.3.639,1.516,1.516,0,0,1-.616,1.184,4.133,4.133,0,0,1-2.463.557Zm-2.688-.711c1.338.249,3.825.58,4.855-.189a1.184,1.184,0,0,0,.45-.864.26.26,0,0,0-.118-.272c-.639-.438-3.316.5-5.222,1.326Z" transform="translate(-114.685 -77.114)" fill="#f9c100"/>
      <path id="Path_2919" data-name="Path 2919" d="M186.492,408.715a.249.249,0,0,1-.13,0,.237.237,0,0,1-.071-.213c0-.189,1.078-4.654,3.553-4.37.616.083.782.379.817.628.154,1.184-2.7,3.422-4.062,3.991Zm3.1-4.228c-1.563,0-2.475,2.605-2.783,3.647,1.48-.782,3.553-2.641,3.422-3.363,0-.059,0-.225-.462-.272Z" transform="translate(-114.691 -77.502)" fill="#f9c100"/>
      <path id="Path_2920" data-name="Path 2920" d="M206,144.1l2.1-.308S206.853,145.223,206,144.1Z" transform="translate(-111.06 -125.451)" fill="#263238"/>
    </g>
    <g id="freepik--E-mails--inject-4" transform="translate(254.153 224.015)">
      <path id="Path_2921" data-name="Path 2921" d="M275.667,231.781l-45.852,9.473a3.055,3.055,0,0,1-3.553-2.368l-2.143-9.947-.77-3.671,1.35-4.192a15.062,15.062,0,0,1,.675-1.764,1.265,1.265,0,0,1,.118-.261,18.272,18.272,0,0,1,3.02-4.737l2.368-.5,39.315-8.159a3.055,3.055,0,0,1,3.553,2.368l4.18,20.131a3.055,3.055,0,0,1-2.262,3.624Z" transform="translate(-223.35 -205.563)" fill="#f9c100"/>
      <path id="Path_2922" data-name="Path 2922" d="M273.057,206.967l-22.121,22.5-4.737-1.918-18.426-7.472-2.593-1.054a18.272,18.272,0,0,1,3.02-4.737l2.368-.5,39.315-8.159a3.067,3.067,0,0,1,3.174,1.338Z" transform="translate(-223.013 -205.57)" opacity="0.3"/>
      <path id="Path_2923" data-name="Path 2923" d="M273.075,206.954l-26.857,20.617-1.753,1.35-16.875-8.372-2.51-1.184a1.268,1.268,0,0,1,.118-.261,18.273,18.273,0,0,1,3.02-4.737l2.368-.5,39.315-8.159a3.067,3.067,0,0,1,3.174,1.243Z" transform="translate(-223.031 -205.557)" fill="#f9c100"/>
      <path id="Path_2924" data-name="Path 2924" d="M273.075,206.954l-26.857,20.617-1.753,1.35-16.875-8.372-2.51-1.184a1.268,1.268,0,0,1,.118-.261,18.273,18.273,0,0,1,3.02-4.737l2.368-.5,39.315-8.159a3.067,3.067,0,0,1,3.174,1.243Z" transform="translate(-223.031 -205.557)" fill="#fff" opacity="0.2"/>
      <path id="Path_2925" data-name="Path 2925" d="M323.123,268.541,309.15,283.6a3.055,3.055,0,0,1-4.3.154l-34.27-31.914a3.043,3.043,0,0,1-.154-4.3l14.021-15.063a3.032,3.032,0,0,1,4.31-.154l34.258,31.914a3.043,3.043,0,0,1,.77,3.316,2.8,2.8,0,0,1-.663.983Z" transform="translate(-214.829 -200.793)" fill="#f9c100"/>
      <path id="Path_2926" data-name="Path 2926" d="M321.293,267.623l-31.168-5.08-7.235-30.789a3.079,3.079,0,0,1,3.375.533L320.523,264.2A3.043,3.043,0,0,1,321.293,267.623Z" transform="translate(-212.384 -200.799)" opacity="0.3"/>
      <path id="Path_2927" data-name="Path 2927" d="M321.293,267.606l-30.351-9.047-8.052-26.715a3.079,3.079,0,0,1,3.375.533l34.258,31.914A3.043,3.043,0,0,1,321.293,267.606Z" transform="translate(-212.384 -200.782)" fill="#f9c100"/>
      <path id="Path_2928" data-name="Path 2928" d="M321.293,267.606l-30.351-9.047-8.052-26.715a3.079,3.079,0,0,1,3.375.533l34.258,31.914A3.043,3.043,0,0,1,321.293,267.606Z" transform="translate(-212.384 -200.782)" fill="#fff" opacity="0.2"/>
      <path id="Path_2929" data-name="Path 2929" d="M330.521,283.91l15.394,17.976a3.328,3.328,0,0,1-.509,4.808l-33.441,26.052a2.641,2.641,0,0,1-3.482-.687L296.44,318.322a3.646,3.646,0,0,1-.557-.876,2.546,2.546,0,0,1,.272-2.747l29.6-30.919a3.185,3.185,0,0,1,3.718-.711,3.552,3.552,0,0,1,1.042.841Z" transform="translate(-210.042 -191.353)" fill="#f9c100"/>
      <path id="Path_2930" data-name="Path 2930" d="M329.472,283.1,322.118,315.8l-26.194,1.67a2.546,2.546,0,0,1,.272-2.747l29.6-30.919a3.185,3.185,0,0,1,3.671-.711Z" transform="translate(-210.035 -191.345)" opacity="0.3"/>
      <path id="Path_2931" data-name="Path 2931" d="M329.475,283.1l-12.327,34.708-21.244-.332a2.546,2.546,0,0,1,.272-2.747l29.6-30.919A3.186,3.186,0,0,1,329.475,283.1Z" transform="translate(-210.038 -191.347)" fill="#f9c100"/>
      <path id="Path_2932" data-name="Path 2932" d="M329.475,283.1l-12.327,34.708-21.244-.332a2.546,2.546,0,0,1,.272-2.747l29.6-30.919A3.186,3.186,0,0,1,329.475,283.1Z" transform="translate(-210.038 -191.347)" fill="#fff" opacity="0.2"/>
    </g>
  </g>
</svg>
