<svg xmlns="http://www.w3.org/2000/svg" width="387.638" height="361.916" viewBox="0 0 387.638 361.916">
  <g id="Full_inbox-bro" data-name="Full inbox-bro" transform="translate(-11.98 -22.125)">
    <g id="freepik--background-simple--inject-2" transform="translate(38.735 26.119)">
      <path id="Path_2731" data-name="Path 2731" d="M44.686,206.2s-.156,61.668,49.406,101.047,120.1,39.862,177.162,41.745,102.111-32.356,110.436-82.065-34.869-62.707-56.642-118.2-19-74.044-67.987-106.932S128.871,32.9,85.678,93.686,44.686,206.2,44.686,206.2Z" transform="translate(-44.667 -27.004)" fill="#f9c100"/>
      <path id="Path_2732" data-name="Path 2732" d="M44.686,206.2s-.156,61.668,49.406,101.047,120.1,39.862,177.162,41.745,102.111-32.356,110.436-82.065-34.869-62.707-56.642-118.2-19-74.044-67.987-106.932S128.871,32.9,85.678,93.686,44.686,206.2,44.686,206.2Z" transform="translate(-44.667 -27.004)" fill="#fff" opacity="0.7"/>
    </g>
    <g id="freepik--speech-bubble--inject-2" transform="translate(122.301 33.122)">
      <rect id="Rectangle_143242" data-name="Rectangle 143242" width="98.15" height="60.342" transform="translate(35.188 27.576)" fill="#263238" stroke="#263238" stroke-width="1"/>
      <rect id="Rectangle_143243" data-name="Rectangle 143243" width="98.15" height="60.342" transform="translate(32.774 24.359)" fill="#fff" stroke="#263238" stroke-width="1"/>
      <path id="Path_2733" data-name="Path 2733" d="M186.8,129.042,236.681,83.99l48.268,45.052Z" transform="translate(-154.026 -44.349)" fill="#fff" stroke="#263238" stroke-width="1"/>
      <path id="Path_2734" data-name="Path 2734" d="M186.8,65.32l49.079,39.42,49.071-39.42Z" transform="translate(-154.026 -40.961)" fill="#fff" stroke="#263238" stroke-width="1"/>
      <path id="Path_2735" data-name="Path 2735" d="M286.2,35.56H175.932A29.172,29.172,0,0,0,146.76,64.732v50a29.172,29.172,0,0,0,29.172,29.172h95.555l-3.561,23.737,20.406-23.811a29.156,29.156,0,0,0,27.011-29.082V64.732A29.172,29.172,0,0,0,286.2,35.56Z" transform="translate(-146.76 -35.56)" fill="none" stroke="#263238" stroke-width="1"/>
    </g>
    <g id="freepik--Number--inject-2" transform="translate(220.655 47.397)">
      <path id="Path_2736" data-name="Path 2736" d="M318.209,83.662H282.267A15.347,15.347,0,0,1,266.92,68.315h0A15.347,15.347,0,0,1,282.267,53h35.941a15.347,15.347,0,0,1,15.347,15.356h0A15.347,15.347,0,0,1,318.209,83.662Z" transform="translate(-266.92 -53)" fill="#263238" stroke="#263238" stroke-width="1"/>
      <path id="Path_2737" data-name="Path 2737" d="M279.845,67.8H279.8l-2.529,1.113-.565-2.627,3.7-1.588h2.848V76.978h-3.413Z" transform="translate(-268.697 -55.123)" fill="#f9c100"/>
      <path id="Path_2738" data-name="Path 2738" d="M288.63,81.015a33.088,33.088,0,0,0,1.531-5.877l3.552-.188a28.01,28.01,0,0,1-2.7,5.877Z" transform="translate(-270.86 -56.983)" fill="#f9c100"/>
      <path id="Path_2739" data-name="Path 2739" d="M296.41,73.713a3.037,3.037,0,0,1,2.194-2.947h0a2.979,2.979,0,0,1-1.776-2.685c0-2.169,2.055-3.6,4.813-3.6,3.552,0,4.592,1.964,4.592,3.274a2.955,2.955,0,0,1-1.719,2.652h0a3.143,3.143,0,0,1,2.267,2.963c0,2.21-1.907,3.839-5.312,3.839C297.711,77.184,296.41,75.1,296.41,73.713ZM303.1,73.6c0-.819-.72-1.4-1.719-1.637a1.408,1.408,0,0,0-1.285,1.4,1.473,1.473,0,0,0,1.547,1.367C302.451,74.728,303.1,74.278,303.1,73.6Zm-2.93-5.648c0,.638.753,1.1,1.637,1.342a1.334,1.334,0,0,0,1.072-1.2,1.261,1.261,0,0,0-1.375-1.285,1.146,1.146,0,0,0-1.334,1.138Z" transform="translate(-272.272 -55.083)" fill="#f9c100"/>
      <path id="Path_2740" data-name="Path 2740" d="M319.6,67.167a10.2,10.2,0,0,0-1.064,0c-2.889.049-3.978,1.072-4.338,2.169h.057a4.133,4.133,0,0,1,2.66-.737,3.962,3.962,0,0,1,4.174,4.093c0,2.66-2.308,4.494-5.042,4.494-3.953,0-5.5-2.832-5.5-5.517a7.056,7.056,0,0,1,2.235-5.329,8.3,8.3,0,0,1,5.73-1.883,6.386,6.386,0,0,1,1.064.074Zm-2.136,5.73a1.637,1.637,0,0,0-1.719-1.85,1.694,1.694,0,0,0-1.637,1,1.187,1.187,0,0,0-.1.565,1.956,1.956,0,0,0,1.932,1.932,1.514,1.514,0,0,0,1.522-1.629Z" transform="translate(-274.837 -55.077)" fill="#f9c100"/>
      <path id="Path_2741" data-name="Path 2741" d="M333.814,67.167a10.03,10.03,0,0,0-1.056,0c-2.889.049-3.986,1.072-4.346,2.169h.057a4.134,4.134,0,0,1,2.66-.737,3.953,3.953,0,0,1,4.175,4.093c0,2.66-2.3,4.494-5.042,4.494-3.945,0-5.492-2.832-5.492-5.517A7.048,7.048,0,0,1,327,66.34a8.308,8.308,0,0,1,5.73-1.883,6.269,6.269,0,0,1,1.056.074Zm-2.136,5.73a1.637,1.637,0,0,0-1.719-1.85,1.694,1.694,0,0,0-1.637,1,1.187,1.187,0,0,0-.1.565,1.956,1.956,0,0,0,1.932,1.932,1.514,1.514,0,0,0,1.522-1.629Z" transform="translate(-277.418 -55.077)" fill="#f9c100"/>
    </g>
    <g id="freepik--Shadows--inject-2" transform="translate(33.229 22.125)">
      <path id="Path_2742" data-name="Path 2742" d="M44.341,398.431,73.98,364.822H96.4l25.628-15.912,20.021,9.724L186.9,390.467l42.449,13.268,31.227-16.8,19.227,6.188,30.433-24.76h33.633l15.216-10.608,24.834,18.572L372.709,388.7l28.026,17.688-4,36.253H37.94Z" transform="translate(-37.94 -81.428)" opacity="0.2"/>
      <g id="Group_75668" data-name="Group 75668" transform="translate(28.278)" opacity="0.2">
        <rect id="Rectangle_143244" data-name="Rectangle 143244" width="42.842" height="26.34" transform="matrix(0.987, -0.161, 0.161, 0.987, 196.904, 147.506)"/>
        <path id="Path_2743" data-name="Path 2743" d="M397.48,264.39l-42.285,6.9,2.3,14.1-3.561-3.029L336.86,302.411l32.626,27.773,17.074-20.054-17.025-14.488,32.184-5.255Z" transform="translate(-120.464 -66.09)"/>
        <rect id="Rectangle_143245" data-name="Rectangle 143245" width="42.842" height="26.34" transform="matrix(0.987, -0.161, 0.161, 0.987, 38.376, 6.901)"/>
        <rect id="Rectangle_143246" data-name="Rectangle 143246" width="42.842" height="26.34" transform="matrix(0.987, -0.161, 0.161, 0.987, 13.939, 225.67)"/>
        <rect id="Rectangle_143247" data-name="Rectangle 143247" width="26.34" height="42.842" transform="translate(60.517 157.813) rotate(-8.98)"/>
        <rect id="Rectangle_143248" data-name="Rectangle 143248" width="26.34" height="42.842" transform="translate(0 180.158) rotate(-49.26)"/>
        <rect id="Rectangle_143249" data-name="Rectangle 143249" width="26.34" height="42.842" transform="translate(232.614 97.103) rotate(-45.82)"/>
      </g>
    </g>
    <g id="freepik--Character--inject-2" transform="translate(140.794 146.265)">
      <path id="Path_2744" data-name="Path 2744" d="M251.457,180.862s-7.023-7.776-18.065-7.023-18.826,11.034-24.834,18.057a13.58,13.58,0,0,0-2.251,15.053c.507,1-16.305,11.042-17.058,19.817s2.758,11.795,1.752,14.8-17.3,14.553-15.3,21.617a30.105,30.105,0,0,0,6.769,11.787s-7.023,7.776-6.016,11.787,9,12.278,24.327,18.319,65.22,7.269,82.786.246,21.822-29.6,19.309-32.856-10.035-6.548-9-10.788,4.264-10.289,2.005-14.046-8.775-5.271-11.034-9.282,2.005-9.536-1.252-14.553-8.529-12.041-8.529-12.041-5.271-22.321-11.288-28.346S251.457,180.862,251.457,180.862Z" transform="translate(-170.474 -173.787)" fill="#263238" stroke="#263238" stroke-width="1"/>
      <path id="Path_2745" data-name="Path 2745" d="M180.279,336.04l-8.529,41.884,21.576-1,6.524-32.61Z" transform="translate(-169.788 -203.232)" fill="#fff" stroke="#263238" stroke-width="1"/>
      <path id="Path_2746" data-name="Path 2746" d="M180.92,342.042l19.268,9.143.2-4.371-19.08-7.154Z" transform="translate(-171.452 -203.889)" fill="#263238" stroke="#263238" stroke-width="1"/>
      <path id="Path_2747" data-name="Path 2747" d="M327.97,328.68l15.552,38.634-19.816,7.776L309.66,338.216Z" transform="translate(-194.815 -201.896)" fill="#fff" stroke="#263238" stroke-width="1"/>
      <path id="Path_2748" data-name="Path 2748" d="M330.442,335.875l-18.482,8.349-2.3-6.008,18.31-9.536Z" transform="translate(-194.815 -201.896)" fill="#263238" stroke="#263238" stroke-width="1"/>
      <path id="Path_2749" data-name="Path 2749" d="M229.682,249l-2.971,22.829a141.756,141.756,0,0,1-15.429,4.011c-6.024,1-18.687,4.019-21.445,9.781s-14.046,36.122-14.046,36.122l26.086,9.413,4.265,21.192-4.011,40.386s84.783,1.007,84.783,0S279.1,348.86,279.1,348.86l3.012-18.564L309.7,317s-17.811-34.869-23.582-38.381-18.065-4.011-22.321-5.517a30.548,30.548,0,0,1-7.53-4.011L251,249.524Z" transform="translate(-170.521 -187.436)" fill="#f9c100" stroke="#263238" stroke-width="1"/>
      <line id="Line_131" data-name="Line 131" y1="4.199" x2="0.352" transform="translate(32.992 119.532)" fill="none" stroke="#263238" stroke-width="1"/>
      <line id="Line_132" data-name="Line 132" y1="16.624" x2="1.4" transform="translate(31.314 127.095)" fill="none" stroke="#263238" stroke-width="1"/>
      <line id="Line_133" data-name="Line 133" x1="4.837" y1="23.058" transform="translate(107.642 119.245)" fill="#f9c100" stroke="#263238" stroke-width="1"/>
      <path id="Path_2750" data-name="Path 2750" d="M271.347,273.081a30.547,30.547,0,0,1-7.53-4.011L258.554,249.5l-21.323-.5-2.971,22.829s-10.469,3.561-16.87,4.911c4.445,2.922,17.189,10.264,32.921,9.863,13.555-.344,23.254-7.792,27.936-12.343a41.7,41.7,0,0,1-6.9-1.179Z" transform="translate(-178.07 -187.436)" fill="#fff" stroke="#263238" stroke-width="1"/>
      <path id="Path_2751" data-name="Path 2751" d="M265.791,261.505l-1.121-4.191-11.32-7.964h-1.8l-11.672,10.215-.286,2.2c2.873,2.562,10.641,9.258,13.6,9.6C255.911,271.647,262.533,264.992,265.791,261.505Z" transform="translate(-182.099 -187.5)" fill="#263238" stroke="#263238" stroke-width="1"/>
      <path id="Path_2752" data-name="Path 2752" d="M259.48,199.656s-2.406-7.94-7.424-5.648-9.822,11.083-13.735,14.079-10.641,1.866-10.641,1.866.778,22.01,3.209,29.271,12.638,16.583,17.1,17.189,9.495-2.128,13.023-6.491,6.548-7.146,7.367-12.049c.761-4.42,1.031-22.616.876-24.417s-6.466-7.367-8.185-10.158S259.48,199.656,259.48,199.656Z" transform="translate(-179.938 -177.381)" fill="#fff" stroke="#263238" stroke-width="1"/>
      <line id="Line_134" data-name="Line 134" x2="3.953" y2="0.565" transform="translate(56.705 51.144)" fill="none" stroke="#263238" stroke-width="1"/>
      <line id="Line_135" data-name="Line 135" y1="0.565" x2="4.232" transform="translate(77.586 51.709)" fill="none" stroke="#263238" stroke-width="1"/>
      <path id="Path_2753" data-name="Path 2753" d="M249.9,244.264a5.917,5.917,0,0,0,4.445,1.056,6.777,6.777,0,0,0,3.438-2.12" transform="translate(-183.97 -186.384)" fill="none" stroke="#263238" stroke-width="1"/>
      <path id="Path_2754" data-name="Path 2754" d="M255.726,252.99c-.041,1.236-.819,2.21-1.637,2.185s-1.531-1.064-1.49-2.3.819-2.218,1.637-2.185S255.776,251.762,255.726,252.99Z" transform="translate(-184.46 -187.743)" fill="#263238"/>
      <path id="Path_2755" data-name="Path 2755" d="M243.763,232.475c-.049,1.285-.638,2.308-1.318,2.284s-1.2-1.08-1.146-2.366.63-2.308,1.31-2.284S243.8,231.158,243.763,232.475Z" transform="translate(-182.409 -184.008)" fill="#263238"/>
      <path id="Path_2756" data-name="Path 2756" d="M266.611,233.255c-.049,1.285-.638,2.308-1.318,2.284s-1.2-1.08-1.154-2.366.638-2.308,1.318-2.284S266.652,231.97,266.611,233.255Z" transform="translate(-186.554 -184.15)" fill="#263238"/>
      <path id="Path_2757" data-name="Path 2757" d="M235.32,223.113s4.69-5.664,10.8-.958" transform="translate(-181.324 -182.226)" fill="none" stroke="#263238" stroke-linecap="round" stroke-width="2"/>
      <path id="Path_2758" data-name="Path 2758" d="M260.05,221.49s6-4.715,10.944,1.293" transform="translate(-185.812 -182.125)" fill="none" stroke="#263238" stroke-linecap="round" stroke-width="2"/>
      <path id="Path_2759" data-name="Path 2759" d="M227.836,228.6s-2.513-5.026-3.2,1.678,4.166,8.9,4.166,8.9Z" transform="translate(-179.373 -183.406)" fill="#fff" stroke="#263238" stroke-width="1"/>
      <path id="Path_2760" data-name="Path 2760" d="M278.533,230.274s2.456-5.058,3.217,1.637-3.61,6.827-3.61,6.827Z" transform="translate(-189.095 -183.706)" fill="#fff" stroke="#263238" stroke-width="1"/>
      <path id="Path_2761" data-name="Path 2761" d="M310.434,334.452,289.111,309.9s-5.263-8.529-6.548-10.534a78.731,78.731,0,0,0-5.263-6.548s-2.513-.745-1.506,2.513a44.839,44.839,0,0,0,3.512,7.522l.5,3.012-22.624-8.079a1.817,1.817,0,0,0-2.39,1.326v.123a1.809,1.809,0,0,0,.95,2l12.049,6.139L249.707,304.2a1.825,1.825,0,0,0-2.128,1.637h0a1.817,1.817,0,0,0,1.351,1.891l16.6,4.379-15.487.884a1.752,1.752,0,0,0-1.637,2.136h0a1.752,1.752,0,0,0,1.563,1.351l17.034,1.4-11.271,2.251a1.285,1.285,0,0,0-.99,1.522h0a1.269,1.269,0,0,0,1.244.99h13.776l7.776,1.506,9.536,1.252s24.335,45.911,25.088,47.409,4.764,4.019,8.775,4.019,9.642-4.4,10.878-7.195a11.1,11.1,0,0,0-2.1-12.875C324.954,351.739,310.434,334.452,310.434,334.452Z" transform="translate(-183.548 -195.374)" fill="#fff" stroke="#263238" stroke-width="1"/>
      <path id="Path_2762" data-name="Path 2762" d="M241.63,316.706l3.863,34.378,19.063-1.261L260.44,315.2Z" transform="translate(-182.469 -199.45)" fill="#263238" stroke="#263238" stroke-width="1"/>
      <path id="Path_2763" data-name="Path 2763" d="M219.232,357.92l1.752-17.058s-1.752-8.251-1-8.251,9.528-1.752,9.528-1.752l.753,3L225,336.622l3,6.278,15.7-9.56a1.547,1.547,0,0,1,2.259.819h0a1.555,1.555,0,0,1-.434,1.686l-11.754,10.338,15.3-5.32a1.874,1.874,0,0,1,2.456,1.383h0a1.883,1.883,0,0,1-1.007,2.079l-15.495,7.629,11.754-.9a1.866,1.866,0,0,1,1.5,2.57h0a1.891,1.891,0,0,1-1.048,1.023l-1.686,2.521a2.407,2.407,0,0,1-1.326.99l-3.02.9-14.946,5.623s-38.634,27.339-39.633,28.092-3.274,1.76-8.529.753-9.781-9-8.529-14.545a11.951,11.951,0,0,1,7.023-8.529C178.068,369.961,219.232,357.92,219.232,357.92Z" transform="translate(-169.353 -202.292)" fill="#fff" stroke="#263238" stroke-width="1"/>
      <line id="Line_136" data-name="Line 136" x2="6.016" y2="12.286" transform="translate(55.068 147.935)" fill="none" stroke="#263238" stroke-width="1"/>
      <line id="Line_137" data-name="Line 137" x1="12.875" y2="3.029" transform="translate(65.332 152.003)" fill="#fff" stroke="#263238" stroke-width="1"/>
      <path id="Path_2764" data-name="Path 2764" d="M304.125,455.958,290.014,424.6H205.231L193.1,455.958Z" transform="translate(-173.662 -219.303)" fill="#969696" stroke="#263238" stroke-width="1"/>
      <path id="Path_2765" data-name="Path 2765" d="M257.861,192.4s-3.921,1.31-5.492,7.841A15.094,15.094,0,0,1,240.91,211.21c-4.183.819-7.58-2.087-7.58-2.087a10.305,10.305,0,0,0,9.929-1.834c4.707-3.913,2.349-11.23,5.73-13.841" transform="translate(-180.963 -177.165)" fill="#263238" stroke="#263238" stroke-width="1"/>
    </g>
    <g id="freepik--Envelopes--inject-2" transform="translate(17.235 81.151)">
      <rect id="Rectangle_143250" data-name="Rectangle 143250" width="48.964" height="30.105" transform="translate(56.98 272.124) rotate(-28.41)" fill="#fff" stroke="#263238" stroke-width="1"/>
      <path id="Path_2766" data-name="Path 2766" d="M105.53,452l11.189-31.6,31.882,8.308Z" transform="translate(-34.212 -153.427)" fill="#fff" stroke="#263238" stroke-width="1"/>
      <path id="Path_2767" data-name="Path 2767" d="M88.03,421.5l30.891,5.648L131.1,398.2Z" transform="translate(-31.036 -149.399)" fill="#fff" stroke="#263238" stroke-width="1"/>
      <path id="Path_2768" data-name="Path 2768" d="M245.9,456.591l8.005-4.33L239.583,425.79l-43.063,23.3,4.06,7.506Z" transform="translate(-50.724 -154.406)" fill="#fff" stroke="#263238" stroke-width="1"/>
      <path id="Path_2769" data-name="Path 2769" d="M250.566,460.618l8.005-4.33L226.7,447.98l-4.477,12.638Z" transform="translate(-55.388 -158.432)" fill="#fff" stroke="#263238" stroke-width="1"/>
      <path id="Path_2770" data-name="Path 2770" d="M196.52,449.085l30.891,5.648,12.171-28.943Z" transform="translate(-50.724 -154.406)" fill="#fff" stroke="#263238" stroke-width="1"/>
      <path id="Path_2771" data-name="Path 2771" d="M123.791,452.419l42.776-23.14L152.243,402.8,109.18,426.1l14.242,26.316Z" transform="translate(-34.874 -150.233)" fill="#fff" stroke="#263238" stroke-width="1"/>
      <path id="Path_2772" data-name="Path 2772" d="M126.977,456.448l42.776-23.14L137.88,425l-11.14,31.448Z" transform="translate(-38.061 -154.262)" fill="#fff" stroke="#263238" stroke-width="1"/>
      <path id="Path_2773" data-name="Path 2773" d="M109.18,426.1l30.891,5.648L152.243,402.8Z" transform="translate(-34.874 -150.233)" fill="#fff" stroke="#263238" stroke-width="1"/>
      <rect id="Rectangle_143251" data-name="Rectangle 143251" width="48.964" height="30.105" transform="translate(116.299 256.039) rotate(163.65)" fill="#fff" stroke="#263238" stroke-width="1"/>
      <path id="Path_2774" data-name="Path 2774" d="M150.063,403.812l-30.2-14.562L103.08,417.6Z" transform="translate(-33.767 -147.774)" fill="#fff" stroke="#263238" stroke-width="1"/>
      <path id="Path_2775" data-name="Path 2775" d="M139.713,371.75l-17.958,25.759L92.73,385.534Z" transform="translate(-31.889 -144.599)" fill="#fff" stroke="#263238" stroke-width="1"/>
      <rect id="Rectangle_143252" data-name="Rectangle 143252" width="48.964" height="30.105" transform="translate(165.437 281.893) rotate(163.65)" fill="#fff" stroke="#263238" stroke-width="1"/>
      <path id="Path_2776" data-name="Path 2776" d="M210.093,435.4l-30.2-14.562-16.78,28.346Z" transform="translate(-44.661 -153.507)" fill="#fff" stroke="#263238" stroke-width="1"/>
      <path id="Path_2777" data-name="Path 2777" d="M199.743,403.34l-17.958,25.767L152.76,417.124Z" transform="translate(-42.783 -150.331)" fill="#fff" stroke="#263238" stroke-width="1"/>
      <rect id="Rectangle_143253" data-name="Rectangle 143253" width="49.104" height="30.191" transform="matrix(-0.987, -0.16, 0.16, -0.987, 136.057, 110.26)" fill="#fff" stroke="#263238" stroke-width="1.003"/>
      <path id="Path_2778" data-name="Path 2778" d="M174.486,223.575,153.548,197.39l-27.388,18.3Z" transform="translate(-37.956 -112.957)" fill="#fff" stroke="#263238" stroke-width="1"/>
      <path id="Path_2779" data-name="Path 2779" d="M180.416,191.342l-27.331,15.47-21-23.353Z" transform="translate(-39.032 -110.429)" fill="#fff" stroke="#263238" stroke-width="1"/>
      <rect id="Rectangle_143254" data-name="Rectangle 143254" width="48.964" height="30.105" transform="matrix(-0.987, -0.161, 0.161, -0.987, 93.3, 176.549)" fill="#fff" stroke="#263238" stroke-width="1"/>
      <path id="Path_2780" data-name="Path 2780" d="M121.666,304.123,100.728,277.93l-27.388,18.3Z" transform="translate(-28.37 -127.573)" fill="#fff" stroke="#263238" stroke-width="1"/>
      <path id="Path_2781" data-name="Path 2781" d="M127.586,271.882l-27.331,15.47L79.26,264Z" transform="translate(-29.444 -125.045)" fill="#fff" stroke="#263238" stroke-width="1"/>
      <rect id="Rectangle_143255" data-name="Rectangle 143255" width="48.964" height="30.105" transform="matrix(-0.987, -0.161, 0.161, -0.987, 296.034, 37.6)" fill="#fff" stroke="#263238" stroke-width="1"/>
      <path id="Path_2782" data-name="Path 2782" d="M369.346,134.375,348.408,108.19l-27.388,18.3Z" transform="translate(-73.317 -96.77)" fill="#fff" stroke="#263238" stroke-width="1"/>
      <path id="Path_2783" data-name="Path 2783" d="M375.266,102.141,347.935,117.6l-21-23.353Z" transform="translate(-74.392 -94.24)" fill="#fff" stroke="#263238" stroke-width="1"/>
      <rect id="Rectangle_143256" data-name="Rectangle 143256" width="48.964" height="30.105" transform="matrix(-0.987, -0.161, 0.161, -0.987, 347.224, 266.658)" fill="#fff" stroke="#263238" stroke-width="1"/>
      <path id="Path_2784" data-name="Path 2784" d="M431.876,414.233,410.938,388.04l-27.388,18.3Z" transform="translate(-84.665 -147.555)" fill="#fff" stroke="#263238" stroke-width="1"/>
      <path id="Path_2785" data-name="Path 2785" d="M437.8,381.992l-27.331,15.47-21-23.353Z" transform="translate(-85.739 -145.027)" fill="#fff" stroke="#263238" stroke-width="1"/>
      <rect id="Rectangle_143257" data-name="Rectangle 143257" width="48.964" height="30.105" transform="matrix(-0.987, -0.161, 0.161, -0.987, 261.947, 293.026)" fill="#fff" stroke="#263238" stroke-width="1"/>
      <path id="Path_2786" data-name="Path 2786" d="M327.686,446.433,306.748,420.24,279.36,438.55Z" transform="translate(-65.757 -153.398)" fill="#fff" stroke="#263238" stroke-width="1"/>
      <path id="Path_2787" data-name="Path 2787" d="M333.606,414.192l-27.331,15.47-21-23.353Z" transform="translate(-66.832 -150.87)" fill="#fff" stroke="#263238" stroke-width="1"/>
      <rect id="Rectangle_143258" data-name="Rectangle 143258" width="48.964" height="30.105" transform="matrix(-0.987, -0.161, 0.161, -0.987, 345.668, 199.926)" fill="#fff" stroke="#263238" stroke-width="1"/>
      <path id="Path_2788" data-name="Path 2788" d="M429.966,332.695,409.028,306.51l-27.388,18.3Z" transform="translate(-84.318 -132.759)" fill="#fff" stroke="#263238" stroke-width="1"/>
      <path id="Path_2789" data-name="Path 2789" d="M435.886,300.461l-27.331,15.462-21-23.353Z" transform="translate(-85.393 -130.23)" fill="#fff" stroke="#263238" stroke-width="1"/>
      <rect id="Rectangle_143259" data-name="Rectangle 143259" width="48.964" height="30.105" transform="matrix(-0.864, 0.503, -0.503, -0.864, 219.028, 248.21)" fill="#fff" stroke="#263238" stroke-width="1"/>
      <path id="Path_2790" data-name="Path 2790" d="M276.6,395.957l-32.807-6.917-9.519,31.538Z" transform="translate(-57.575 -147.736)" fill="#fff" stroke="#263238" stroke-width="1"/>
      <path id="Path_2791" data-name="Path 2791" d="M258.106,365.7l-11.279,29.311-31.047-4.69Z" transform="translate(-54.219 -143.501)" fill="#fff" stroke="#263238" stroke-width="1"/>
      <rect id="Rectangle_143260" data-name="Rectangle 143260" width="48.964" height="30.105" transform="translate(297.235 92.686) rotate(98.98)" fill="#fff" stroke="#263238" stroke-width="1"/>
      <path id="Path_2792" data-name="Path 2792" d="M375.746,207.46,349.66,228.529l18.441,27.3Z" transform="translate(-78.515 -114.784)" fill="#fff" stroke="#263238" stroke-width="1"/>
      <path id="Path_2793" data-name="Path 2793" d="M343.507,201.72l15.609,27.249L335.87,250.087Z" transform="translate(-76.012 -113.743)" fill="#fff" stroke="#263238" stroke-width="1"/>
      <rect id="Rectangle_143261" data-name="Rectangle 143261" width="49.104" height="30.191" transform="matrix(-0.16, 0.987, -0.987, -0.16, 292.51, 220.921)" fill="#fff" stroke="#263238" stroke-width="1.003"/>
      <path id="Path_2794" data-name="Path 2794" d="M372.076,364.85,345.99,385.919l18.441,27.3Z" transform="translate(-77.849 -143.347)" fill="#fff" stroke="#263238" stroke-width="1"/>
      <path id="Path_2795" data-name="Path 2795" d="M339.845,359.11l15.6,27.249L332.2,407.469Z" transform="translate(-75.346 -142.305)" fill="#fff" stroke="#263238" stroke-width="1"/>
      <rect id="Rectangle_143262" data-name="Rectangle 143262" width="48.964" height="30.105" transform="translate(366.413 118.21) rotate(139.26)" fill="#fff" stroke="#263238" stroke-width="1"/>
      <path id="Path_2796" data-name="Path 2796" d="M457.824,238.476,424.3,237.69l-3.577,32.741Z" transform="translate(-91.41 -120.27)" fill="#fff" stroke="#263238" stroke-width="1"/>
      <path id="Path_2797" data-name="Path 2797" d="M433.824,210.79l-5.713,30.875-31.391,1.08Z" transform="translate(-87.055 -115.389)" fill="#fff" stroke="#263238" stroke-width="1"/>
      <rect id="Rectangle_143263" data-name="Rectangle 143263" width="48.964" height="30.105" transform="translate(100.553 23.299) rotate(135.82)" fill="#fff" stroke="#263238" stroke-width="1"/>
      <path id="Path_2798" data-name="Path 2798" d="M133.455,122.7l-33.51,1.228-1.6,32.9Z" transform="translate(-32.907 -99.403)" fill="#fff" stroke="#263238" stroke-width="1"/>
      <path id="Path_2799" data-name="Path 2799" d="M107.825,96.33l-3.847,31.161L72.71,130.454Z" transform="translate(-28.256 -94.617)" fill="#fff" stroke="#263238" stroke-width="1"/>
      <path id="Path_2800" data-name="Path 2800" d="M49.313,452.419,92.1,429.279,77.773,402.8,34.71,426.1l14.234,26.316Z" transform="translate(-21.36 -150.233)" fill="#fff" stroke="#263238" stroke-width="1"/>
      <path id="Path_2801" data-name="Path 2801" d="M52.5,456.448l42.784-23.14L63.41,425,52.27,456.448Z" transform="translate(-24.547 -154.262)" fill="#fff" stroke="#263238" stroke-width="1"/>
      <path id="Path_2802" data-name="Path 2802" d="M34.71,426.1,65.6,431.751,77.773,402.8Z" transform="translate(-21.36 -150.233)" fill="#fff" stroke="#263238" stroke-width="1"/>
      <path id="Path_2803" data-name="Path 2803" d="M69.181,458.358,67.192,434.4,18.4,438.452l1.653,19.907Z" transform="translate(-18.4 -155.968)" fill="#fff" stroke="#263238" stroke-width="1"/>
      <path id="Path_2804" data-name="Path 2804" d="M64.679,460.485l-18.2-14.365L33.01,460.485Z" transform="translate(-21.051 -158.095)" fill="#fff" stroke="#263238" stroke-width="1"/>
      <path id="Path_2805" data-name="Path 2805" d="M18.4,438.452l26.021,17.574L67.192,434.4Z" transform="translate(-18.4 -155.968)" fill="#fff" stroke="#263238" stroke-width="1"/>
      <path id="Path_2806" data-name="Path 2806" d="M304,458.01l2.562-17.205-48.432-7.195-3.634,24.4Z" transform="translate(-61.246 -155.825)" fill="#fff" stroke="#263238" stroke-width="1"/>
      <path id="Path_2807" data-name="Path 2807" d="M293.749,460.493l-10.51-13.2-19.849,13.2Z" transform="translate(-62.859 -158.307)" fill="#fff" stroke="#263238" stroke-width="1"/>
      <path id="Path_2808" data-name="Path 2808" d="M258.94,433.61l21.323,23.05,27.11-15.855Z" transform="translate(-62.052 -155.825)" fill="#fff" stroke="#263238" stroke-width="1"/>
      <rect id="Rectangle_143264" data-name="Rectangle 143264" width="48.964" height="30.105" transform="translate(32.445 244.927) rotate(2.18)" fill="#fff" stroke="#263238" stroke-width="1"/>
      <path id="Path_2809" data-name="Path 2809" d="M56.65,425.451,82.368,403.94l23.205,23.369Z" transform="translate(-25.341 -150.44)" fill="#fff" stroke="#263238" stroke-width="1"/>
      <path id="Path_2810" data-name="Path 2810" d="M58.04,393.47l23.721,20.586,25.211-18.728Z" transform="translate(-25.594 -148.54)" fill="#fff" stroke="#263238" stroke-width="1"/>
      <rect id="Rectangle_143265" data-name="Rectangle 143265" width="48.964" height="30.105" transform="translate(68.978 242.493) rotate(16.35)" fill="#fff" stroke="#263238" stroke-width="1"/>
      <path id="Path_2811" data-name="Path 2811" d="M92.32,422.552l30.2-14.562,16.78,28.346Z" transform="translate(-31.815 -151.175)" fill="#fff" stroke="#263238" stroke-width="1"/>
      <path id="Path_2812" data-name="Path 2812" d="M102.67,390.49l17.958,25.759,29.025-11.975Z" transform="translate(-33.693 -148)" fill="#fff" stroke="#263238" stroke-width="1"/>
      <path id="Path_2813" data-name="Path 2813" d="M77.785,455.346l15.675-13.89L73.5,418.93,36.85,451.4l3.5,3.945Z" transform="translate(-21.748 -153.161)" fill="#fff" stroke="#263238" stroke-width="1"/>
      <path id="Path_2814" data-name="Path 2814" d="M82.67,460.152l15.675-13.89-32.929-.851L63.77,460.152Z" transform="translate(-26.633 -157.966)" fill="#fff" stroke="#263238" stroke-width="1"/>
      <path id="Path_2815" data-name="Path 2815" d="M36.85,451.4l31.366-1.514L73.5,418.93Z" transform="translate(-21.748 -153.161)" fill="#fff" stroke="#263238" stroke-width="1"/>
      <path id="Path_2816" data-name="Path 2816" d="M119.557,456.021l5.746-19.587L78.312,422.65,69.84,451.536l15.306,4.486Z" transform="translate(-27.735 -153.836)" fill="#fff" stroke="#263238" stroke-width="1"/>
      <path id="Path_2817" data-name="Path 2817" d="M111.323,459.2,100.044,440.15l-30.2,14.562L85.146,459.2Z" transform="translate(-27.735 -157.012)" fill="#fff" stroke="#263238" stroke-width="1"/>
      <path id="Path_2818" data-name="Path 2818" d="M80.19,422.65l17.958,25.759,29.033-11.975Z" transform="translate(-29.613 -153.836)" fill="#fff" stroke="#263238" stroke-width="1"/>
      <path id="Path_2819" data-name="Path 2819" d="M224.557,458.233l.819-21.527-48.932-1.866-.884,23.393Z" transform="translate(-46.92 -156.048)" fill="#fff" stroke="#263238" stroke-width="1"/>
      <path id="Path_2820" data-name="Path 2820" d="M217.465,460.134,202.739,445.31,185.01,460.134Z" transform="translate(-48.635 -157.948)" fill="#fff" stroke="#263238" stroke-width="1"/>
      <path id="Path_2821" data-name="Path 2821" d="M176.64,434.84l23.721,20.586,25.211-18.72Z" transform="translate(-47.116 -156.048)" fill="#fff" stroke="#263238" stroke-width="1"/>
      <rect id="Rectangle_143266" data-name="Rectangle 143266" width="48.964" height="30.105" transform="translate(317.622 298.583) rotate(-151.59)" fill="#fff" stroke="#263238" stroke-width="1"/>
      <path id="Path_2822" data-name="Path 2822" d="M396.941,452l-11.2-31.6-31.873,8.308Z" transform="translate(-79.279 -153.427)" fill="#fff" stroke="#263238" stroke-width="1"/>
      <path id="Path_2823" data-name="Path 2823" d="M414.441,421.5l-30.891,5.648L371.37,398.2Z" transform="translate(-82.455 -149.399)" fill="#fff" stroke="#263238" stroke-width="1"/>
      <path id="Path_2824" data-name="Path 2824" d="M375.875,452.419,390.117,426.1l-43.063-23.3L332.73,429.279l42.776,23.14Z" transform="translate(-75.443 -150.233)" fill="#fff" stroke="#263238" stroke-width="1"/>
      <path id="Path_2825" data-name="Path 2825" d="M375.735,456.448,364.6,425l-31.873,8.308,42.776,23.14Z" transform="translate(-75.443 -154.262)" fill="#fff" stroke="#263238" stroke-width="1"/>
      <path id="Path_2826" data-name="Path 2826" d="M393.293,426.1,362.4,431.751,350.23,402.8Z" transform="translate(-78.618 -150.233)" fill="#fff" stroke="#263238" stroke-width="1"/>
      <rect id="Rectangle_143267" data-name="Rectangle 143267" width="48.964" height="30.105" transform="translate(279.996 299.338) rotate(-151.59)" fill="#fff" stroke="#263238" stroke-width="1"/>
      <path id="Path_2827" data-name="Path 2827" d="M350.971,452.923l-11.189-31.6L307.9,429.628Z" transform="translate(-70.937 -153.594)" fill="#fff" stroke="#263238" stroke-width="1"/>
      <path id="Path_2828" data-name="Path 2828" d="M368.471,422.423l-30.891,5.648L325.4,399.12Z" transform="translate(-74.112 -149.566)" fill="#fff" stroke="#263238" stroke-width="1"/>
      <path id="Path_2829" data-name="Path 2829" d="M450.343,452.419,464.585,426.1l-43.071-23.3L407.19,429.279l42.784,23.14Z" transform="translate(-88.955 -150.233)" fill="#fff" stroke="#263238" stroke-width="1"/>
      <path id="Path_2830" data-name="Path 2830" d="M450.2,456.448,439.072,425l-31.882,8.308,42.784,23.14Z" transform="translate(-88.955 -154.262)" fill="#fff" stroke="#263238" stroke-width="1"/>
      <path id="Path_2831" data-name="Path 2831" d="M467.761,426.1l-30.891,5.648L424.69,402.8Z" transform="translate(-92.131 -150.233)" fill="#fff" stroke="#263238" stroke-width="1"/>
      <path id="Path_2832" data-name="Path 2832" d="M350,455.756l6.1-11.271-43.063-23.3L298.71,447.661l14.963,8.1Z" transform="translate(-69.269 -153.571)" fill="#fff" stroke="#263238" stroke-width="1"/>
      <path id="Path_2833" data-name="Path 2833" d="M336.395,459.783l-5.812-16.4-31.873,8.308,14.963,8.1Z" transform="translate(-69.269 -157.598)" fill="#fff" stroke="#263238" stroke-width="1"/>
      <path id="Path_2834" data-name="Path 2834" d="M359.273,444.485l-30.891,5.648L316.21,421.19Z" transform="translate(-72.445 -153.571)" fill="#fff" stroke="#263238" stroke-width="1"/>
      <rect id="Rectangle_143268" data-name="Rectangle 143268" width="48.964" height="30.105" transform="translate(357.675 275.006) rotate(177.82)" fill="#fff" stroke="#263238" stroke-width="1"/>
      <path id="Path_2835" data-name="Path 2835" d="M444.523,425.451,418.805,403.94,395.6,427.309Z" transform="translate(-86.852 -150.44)" fill="#fff" stroke="#263238" stroke-width="1"/>
      <path id="Path_2836" data-name="Path 2836" d="M443.123,393.47l-23.713,20.586L394.2,395.328Z" transform="translate(-86.598 -148.54)" fill="#fff" stroke="#263238" stroke-width="1"/>
      <rect id="Rectangle_143269" data-name="Rectangle 143269" width="48.964" height="30.105" transform="translate(314.475 282.534) rotate(-130.34)" fill="#fff" stroke="#263238" stroke-width="1"/>
      <path id="Path_2837" data-name="Path 2837" d="M395.522,431.135l1.023-33.519L363.82,393.81Z" transform="translate(-81.085 -148.602)" fill="#fff" stroke="#263238" stroke-width="1"/>
      <path id="Path_2838" data-name="Path 2838" d="M423.552,407.327,392.709,401.4l-.859-31.39Z" transform="translate(-86.171 -144.283)" fill="#fff" stroke="#263238" stroke-width="1"/>
      <rect id="Rectangle_143270" data-name="Rectangle 143270" width="48.964" height="30.105" transform="translate(328.465 271.377) rotate(163.65)" fill="#fff" stroke="#263238" stroke-width="1"/>
      <path id="Path_2839" data-name="Path 2839" d="M409.282,422.552l-30.2-14.562L362.29,436.336Z" transform="translate(-80.807 -151.175)" fill="#fff" stroke="#263238" stroke-width="1"/>
      <path id="Path_2840" data-name="Path 2840" d="M398.923,390.49l-17.95,25.759L351.94,404.274Z" transform="translate(-78.929 -148)" fill="#fff" stroke="#263238" stroke-width="1"/>
      <path id="Path_2841" data-name="Path 2841" d="M459.114,455.346l3.5-3.945L425.964,418.93,406,441.456l15.683,13.89Z" transform="translate(-88.739 -153.161)" fill="#fff" stroke="#263238" stroke-width="1"/>
      <path id="Path_2842" data-name="Path 2842" d="M440.583,460.152l-1.645-14.742L406,446.261l15.683,13.89Z" transform="translate(-88.739 -157.966)" fill="#fff" stroke="#263238" stroke-width="1"/>
      <path id="Path_2843" data-name="Path 2843" d="M467.044,451.4l-31.366-1.514L430.39,418.93Z" transform="translate(-93.165 -153.161)" fill="#fff" stroke="#263238" stroke-width="1"/>
      <path id="Path_2844" data-name="Path 2844" d="M414.569,456.021l15.306-4.486L421.4,422.65,374.42,436.434l5.746,19.587Z" transform="translate(-83.008 -153.836)" fill="#fff" stroke="#263238" stroke-width="1"/>
      <path id="Path_2845" data-name="Path 2845" d="M417.666,459.2l15.306-4.486-30.2-14.562L391.49,459.2Z" transform="translate(-86.106 -157.012)" fill="#fff" stroke="#263238" stroke-width="1"/>
      <path id="Path_2846" data-name="Path 2846" d="M421.4,422.65l-17.958,25.759L374.42,436.434Z" transform="translate(-83.008 -153.836)" fill="#fff" stroke="#263238" stroke-width="1"/>
      <rect id="Rectangle_143271" data-name="Rectangle 143271" width="48.964" height="30.105" transform="translate(294.46 295.323) rotate(177.82)" fill="#fff" stroke="#263238" stroke-width="1"/>
      <path id="Path_2847" data-name="Path 2847" d="M367.293,450.271,341.575,428.76,318.37,452.137Z" transform="translate(-72.837 -154.945)" fill="#fff" stroke="#263238" stroke-width="1"/>
      <path id="Path_2848" data-name="Path 2848" d="M365.9,418.29l-23.721,20.586-25.211-18.72Z" transform="translate(-72.583 -153.044)" fill="#fff" stroke="#263238" stroke-width="1"/>
      <path id="Path_2849" data-name="Path 2849" d="M153.161,454.415,179.3,440.279,164.973,413.8,121.91,437.1l9.364,17.312Z" transform="translate(-37.184 -152.23)" fill="#fff" stroke="#263238" stroke-width="1"/>
      <path id="Path_2850" data-name="Path 2850" d="M157.056,458.444l26.136-14.136L151.318,436l-7.948,22.444Z" transform="translate(-41.079 -156.258)" fill="#fff" stroke="#263238" stroke-width="1"/>
      <path id="Path_2851" data-name="Path 2851" d="M121.91,437.1l30.891,5.648L164.973,413.8Z" transform="translate(-37.184 -152.23)" fill="#fff" stroke="#263238" stroke-width="1"/>
      <rect id="Rectangle_143272" data-name="Rectangle 143272" width="48.964" height="30.105" transform="translate(119.094 182.402) rotate(139.59)" fill="#fff" stroke="#263238" stroke-width="1"/>
      <path id="Path_2852" data-name="Path 2852" d="M155.632,316.862l-33.519-.982L118.34,348.6Z" transform="translate(-36.536 -134.46)" fill="#fff" stroke="#263238" stroke-width="1"/>
      <path id="Path_2853" data-name="Path 2853" d="M131.794,289.08,125.9,319.922l-31.391.9Z" transform="translate(-32.212 -129.596)" fill="#fff" stroke="#263238" stroke-width="1"/>
    </g>
    <g id="freepik--Table--inject-2" transform="translate(11.98 383.337)">
      <line id="Line_138" data-name="Line 138" x2="387.638" fill="none" stroke="#263238" stroke-width="1"/>
    </g>
  </g>
</svg>
