<svg xmlns="http://www.w3.org/2000/svg" width="13.168" height="17.557" viewBox="0 0 13.168 17.557">
  <g id="user-add" transform="translate(0 0)">
    <path id="Path_1882" data-name="Path 1882" d="M7.389,8.779A4.389,4.389,0,1,0,3,4.389,4.389,4.389,0,0,0,7.389,8.779Zm0-7.316A2.926,2.926,0,1,1,4.463,4.389,2.926,2.926,0,0,1,7.389,1.463Z" transform="translate(-0.805 0)" fill="#1b1e23"/>
    <path id="Path_1883" data-name="Path 1883" d="M6.584,14A6.591,6.591,0,0,0,0,20.584a.732.732,0,1,0,1.463,0,5.121,5.121,0,1,1,10.242,0,.732.732,0,1,0,1.463,0A6.591,6.591,0,0,0,6.584,14Z" transform="translate(0 -3.758)" fill="#1b1e23"/>
  </g>
</svg>
