<svg id="Component_35_3" data-name="Component 35 – 3" xmlns="http://www.w3.org/2000/svg" width="31.045" height="28.624" viewBox="0 0 31.045 28.624">
  <g id="Group_370" data-name="Group 370" transform="translate(-1126.809 -524.688)">
    <path id="Path_546" data-name="Path 546" d="M1128.286,553.313c-.112-.041-.224-.081-.334-.125a1.788,1.788,0,0,1-1.136-1.73c-.007-1.258,0-2.515,0-3.773q0-1.817,0-3.633a1.767,1.767,0,0,1,.014-.307.408.408,0,0,1,.789-.052,1.3,1.3,0,0,1,.034.359q0,3.186,0,6.372a.677.677,0,0,0,.027.327c.105.009.175-.061.254-.1q4.245-2.33,8.492-4.658c.23-.126.24-.187.053-.374q-4.272-4.246-8.532-8.5c-.067-.066-.122-.208-.231-.158s-.061.185-.062.283q-.006,2.264,0,4.527c0,.448-.138.653-.433.646s-.405-.2-.405-.639c0-1.463.01-2.925,0-4.388a2.032,2.032,0,0,1,.668-1.592c.469-.439.916-.9,1.379-1.347a.46.46,0,0,0,.153-.366q-.008-1.7,0-3.409a1.8,1.8,0,0,1,1.91-1.906c1.146,0,2.292-.005,3.438,0a.626.626,0,0,0,.49-.2c1.1-1.089,2.2-2.17,3.307-3.253a1.8,1.8,0,0,1,2.739,0c1.1,1.083,2.21,2.164,3.307,3.253a.625.625,0,0,0,.489.2c1.136-.009,2.273-.006,3.409,0a1.806,1.806,0,0,1,1.94,1.933c0,.279,0,.559,0,.838a.407.407,0,0,1-.4.447.417.417,0,0,1-.435-.443c-.01-.3,0-.6,0-.894a.963.963,0,0,0-1.046-1.042q-3.717,0-7.434,0h-9.7c-.827,0-1.175.346-1.175,1.166q0,3.4,0,6.791a.561.561,0,0,0,.182.438q3.634,3.618,7.258,7.247a.276.276,0,0,0,.4.053c.327-.2.664-.376,1-.552a1.719,1.719,0,0,1,1.636-.017c.366.183.724.382,1.078.589a.231.231,0,0,0,.334-.048q3.664-3.667,7.339-7.324a.468.468,0,0,0,.126-.377q0-2.026,0-4.052a.719.719,0,0,1,.044-.329.392.392,0,0,1,.429-.242.372.372,0,0,1,.358.365,6.787,6.787,0,0,1,0,.754.468.468,0,0,0,.163.39c.477.458.942.929,1.419,1.387a1.942,1.942,0,0,1,.616,1.472q-.006,7.043,0,14.085a1.775,1.775,0,0,1-1.4,1.866.278.278,0,0,0-.068.046h-4.975c-.346-.257-.377-.607-.071-.783a.67.67,0,0,1,.353-.055c1.425,0,2.85,0,4.275,0a1,1,0,0,0,.919-.477c.1-.157.108-.259-.09-.367q-5.557-3.041-11.1-6.1a1.05,1.05,0,0,0-1.109.013c-.5.286-1.009.558-1.514.836q-4.768,2.621-9.54,5.237c-.223.122-.217.229-.1.4a1.048,1.048,0,0,0,.96.454q7.586-.006,15.171,0c.241,0,.457.033.546.287s-.06.422-.26.553Zm23.1-9.417q0-3.2,0-6.4c0-.112,0-.224-.008-.335-.008-.078.028-.191-.072-.219-.074-.021-.121.074-.172.125q-4.3,4.291-8.606,8.58c-.169.168-.134.216.052.318q4.271,2.337,8.536,4.686c.268.148.27.147.27-.165Q1151.39,547.192,1151.39,543.9Zm-15.362-15.156h7.161c-.213-.2-.382-.363-.547-.525-.79-.776-1.578-1.555-2.37-2.328a.966.966,0,0,0-1.5,0c-.134.129-.27.257-.4.391C1137.581,527.108,1136.786,527.944,1136.028,528.739ZM1129,535.554l-.073-.05-.589.627c-.039.042-.085.087-.031.141.215.22.433.436.693.7Zm21.138-.072-.1.075V536.9l.095.059c.194-.219.387-.438.583-.655a.1.1,0,0,0,0-.165C1150.521,535.922,1150.329,535.7,1150.135,535.482Z" transform="translate(0)" fill="#4e4e4e"/>
    <path id="Path_547" data-name="Path 547" d="M1245.914,624.771a1.994,1.994,0,0,1,.071-.317.411.411,0,0,1,.781.09,1.514,1.514,0,0,1,.009.279c0,1,0,1.993-.01,2.99,0,.254.021.508.28.619a.685.685,0,0,0,.724-.167,2.015,2.015,0,0,0,.561-1.217,3.177,3.177,0,0,0-2.459-3.54,3.383,3.383,0,1,0-1.252,6.639l.3.036c.3.034.47.21.444.461a.43.43,0,0,1-.5.374,4.27,4.27,0,0,1-2.148-.709,4.221,4.221,0,1,1,6.307-4.957,3.613,3.613,0,0,1-.278,3.02,1.687,1.687,0,0,1-1.488.936,1.164,1.164,0,0,1-1.054-.516c-.1-.136-.145-.186-.307-.057a1.662,1.662,0,0,1-2.24-.093,2.628,2.628,0,0,1-.335-3.346A1.919,1.919,0,0,1,1245.914,624.771Zm.018,1.981a1.828,1.828,0,0,0-.15-.789.977.977,0,0,0-1.7-.274,1.77,1.77,0,0,0,.135,2.335.858.858,0,0,0,1.287-.065A1.77,1.77,0,0,0,1245.932,626.752Z" transform="translate(-105.513 -90.577)" fill="#4e4e4e"/>
  </g>
  <circle id="Ellipse_59" data-name="Ellipse 59" cx="6.5" cy="6.5" r="6.5" transform="translate(18.045 4.624)" fill="#d44000"/>
</svg>
