<svg id="Component_36_3" data-name="Component 36 – 3" xmlns="http://www.w3.org/2000/svg" width="24" height="25" viewBox="0 0 24 25">
  <g id="Group_372" data-name="Group 372" transform="translate(-3101.867 -91.122)">
    <path id="Path_549" data-name="Path 549" d="M3111.445,116.122c-.157-.039-.316-.07-.47-.117a3.446,3.446,0,0,1-2.528-2.681c-.038-.164-.1-.2-.261-.2-1.608.006-3.217.011-4.825,0a1.413,1.413,0,0,1-1.331-.841,1.434,1.434,0,0,1,.143-1.547,2.033,2.033,0,0,1,.308-.32,6.938,6.938,0,0,0,2.393-5.34c.008-1.054-.011-2.109.009-3.162a6.962,6.962,0,0,1,4.689-6.38.36.36,0,0,0,.3-.425,7.908,7.908,0,0,1,.018-1.217,1.993,1.993,0,0,1,3.956,0,11.362,11.362,0,0,1,.022,1.334.237.237,0,0,0,.186.267,6.983,6.983,0,0,1,4.808,6.795c.013,1.148-.054,2.3.035,3.442a6.793,6.793,0,0,0,2.2,4.544c.085.08.176.155.261.236a1.5,1.5,0,0,1-1.031,2.618q-2.39,0-4.779,0c-.16,0-.227.037-.261.2a3.48,3.48,0,0,1-2.871,2.753c-.045.007-.095,0-.127.045Zm.411-3.994v-.012q1.51,0,3.02,0,2.681,0,5.362.013a.545.545,0,0,0,.587-.33c.089-.225.024-.411-.223-.633a7.914,7.914,0,0,1-2.738-6.171c0-.929,0-1.858,0-2.787a6,6,0,0,0-11.991-.209c-.014,1.132.017,2.264-.013,3.4a7.945,7.945,0,0,1-2.763,5.8.5.5,0,0,0-.188.6.518.518,0,0,0,.541.328h8.406Zm.01,1c-.741,0-1.482,0-2.224,0-.171,0-.231.015-.174.212a2.5,2.5,0,0,0,4.8,0c.058-.2-.006-.213-.175-.211C3113.349,113.127,3112.608,113.123,3111.866,113.123Zm1-18.576h-.006c0-.171.01-.344,0-.514a.991.991,0,0,0-1.975.009c-.018.334,0,.67-.01,1.005,0,.112.036.151.15.137a6.786,6.786,0,0,1,1.679,0c.121.015.171-.018.165-.145C3112.856,94.874,3112.862,94.711,3112.862,94.547Z" transform="translate(0 0)" fill="#4e4e4e"/>
  </g>
  <circle id="Ellipse_58" data-name="Ellipse 58" cx="6.5" cy="6.5" r="6.5" transform="translate(11)" fill="#d44000"/>
</svg>
