<svg id="edit" xmlns="http://www.w3.org/2000/svg" width="14.48" height="14.352" viewBox="0 0 14.48 14.352">
  <path id="Path_412" data-name="Path 412" d="M12.221,11.841v7.1a1.993,1.993,0,0,1-1.99,1.99H1.99A1.993,1.993,0,0,1,0,18.94V10.7A1.993,1.993,0,0,1,1.99,8.71H9.334L8.9,9.143H1.99A1.557,1.557,0,0,0,.433,10.7v8.24A1.557,1.557,0,0,0,1.99,20.5h8.24A1.559,1.559,0,0,0,11.79,18.94V12.272Z" transform="translate(0 -6.578)" fill="#fff"/>
  <path id="Path_413" data-name="Path 413" d="M32.664.287a1.045,1.045,0,0,0-1.437,0L24.818,6.7a3.49,3.49,0,0,0-.326,1.528l-.022.245.257-.022a3.43,3.43,0,0,0,1.528-.326l6.409-6.406a1.018,1.018,0,0,0,0-1.437Zm-.3,1.131-6.4,6.4h-.02a5.19,5.19,0,0,1-.859.162L24.947,8l.015-.132A4.95,4.95,0,0,1,25.124,7l.022-.032L31.533.593a.585.585,0,1,1,.827.825Z" transform="translate(-18.48 -0.001)" fill="#fff"/>
</svg>
