<svg xmlns="http://www.w3.org/2000/svg" width="32.6" height="33.168" viewBox="0 0 32.6 33.168">
  <g id="Group_354" data-name="Group 354" transform="translate(-986.483 -272.532)">
    <path id="Path_536" data-name="Path 536" d="M1003.041,350.545c-3.861,0-7.722-.009-11.582.005A2.372,2.372,0,0,1,989,348.944a.374.374,0,0,0-.3-.249,2.774,2.774,0,0,1-2.214-2.958q0-9.782,0-19.564a2.67,2.67,0,0,1,2.878-2.9c2.068-.007,4.135,0,6.2,0a2.665,2.665,0,0,1,2.707,1.7c.221.517.5,1.009.723,1.526a.537.537,0,0,0,.584.365q8.177-.015,16.354-.006a2.976,2.976,0,0,1,3.03,2.179,3.633,3.633,0,0,1,.12.986q0,7.917,0,15.834a2.733,2.733,0,0,1-1.585,2.626.573.573,0,0,0-.308.38,2.312,2.312,0,0,1-2.348,1.688Q1008.941,350.548,1003.041,350.545Zm12.892-1.764H995.841c-.639,0-.929-.181-.943-.583s.293-.61.952-.61q10.131,0,20.262,0a1.609,1.609,0,0,0,1.774-1.772q0-7.9,0-15.793a2.689,2.689,0,0,0-.047-.6,1.766,1.766,0,0,0-1.9-1.373q-10.37,0-20.74,0a3.251,3.251,0,0,1-.433-.009.591.591,0,0,1,.009-1.181,4.153,4.153,0,0,1,.433-.006h2.645c-.245-.511-.485-.954-.673-1.418a1.5,1.5,0,0,0-1.526-.99c-2.126-.006-4.252-.01-6.378,0a1.48,1.48,0,0,0-1.6,1.638q0,9.871,0,19.742a1.609,1.609,0,0,0,1.78,1.765c.969,0,1.938,0,2.907,0a.574.574,0,0,1,.643.56c.032.348-.221.6-.626.626-.274.017-.549,0-.824.007a8.479,8.479,0,0,0-1.315.041,1.344,1.344,0,0,0,1.261.54q11.563-.005,23.126,0a3.517,3.517,0,0,0,.519-.028A1.082,1.082,0,0,0,1015.934,348.781Z" transform="translate(0 -44.851)" fill="#4e4e4e"/>
    <path id="Path_537" data-name="Path 537" d="M1102.558,300.983a.687.687,0,0,1,.537.287c.2.255.39.309.6.012a.808.808,0,0,1,.226-.2.545.545,0,0,1,.716.066.569.569,0,0,1,.107.715.359.359,0,0,1-.1.138c-.38.268-.383.495-.017.819a.572.572,0,0,1-.2.983.583.583,0,0,1-.692-.225c-.236-.3-.41-.3-.671-.009a.583.583,0,0,1-.909.1.6.6,0,0,1,.1-.94c.323-.271.245-.439-.026-.658a.6.6,0,0,1-.2-.737A.558.558,0,0,1,1102.558,300.983Z" transform="translate(-102.101 -25.149)" fill="#4e4e4e"/>
    <path id="Path_538" data-name="Path 538" d="M1166.581,329.346a.592.592,0,1,1-.52-.633A.605.605,0,0,1,1166.581,329.346Z" transform="translate(-158.172 -49.664)" fill="#4e4e4e"/>
    <path id="Path_539" data-name="Path 539" d="M1151.332,273.146a.579.579,0,1,1-.535-.613A.568.568,0,0,1,1151.332,273.146Z" transform="translate(-144.713 0)" fill="#4e4e4e"/>
    <path id="Path_540" data-name="Path 540" d="M1027.465,405.824q0-2.384,0-4.768c0-.65.167-.818.823-.818q4.508,0,9.017,0c.641,0,.825.187.826.827q0,4.79,0,9.58c0,.66-.182.835-.856.835H1028.3c-.675,0-.836-.163-.836-.844Q1027.464,408.23,1027.465,405.824Zm1.24,1.8c.034-.007.067,0,.083-.019.616-.569,1.242-1.127,1.839-1.714a.838.838,0,0,1,1.013-.213c.708.289,1.434.53,2.142.819a.5.5,0,0,0,.7-.159,12.369,12.369,0,0,1,1.4-1.6,3.1,3.1,0,0,0,1.073-2.917c-.038-.3-.071-.418-.408-.416q-3.729.023-7.458,0c-.336,0-.445.084-.442.431.016,1.806.006,3.613.01,5.42C1028.651,407.379,1028.607,407.514,1028.7,407.621Zm.855.9h1.023c1.992,0,3.984,0,5.975,0,.144,0,.377.106.376-.2,0-.96,0-1.921,0-2.93-.159.147-.281.24-.38.353-.524.6-1.057,1.185-1.558,1.8a.813.813,0,0,1-1.061.277c-.761-.308-1.537-.578-2.3-.876a.372.372,0,0,0-.463.065C1030.673,407.49,1030.163,407.957,1029.56,408.522Zm3.292,1.2q-1.908,0-3.817,0c-.206,0-.4-.034-.395.291s.175.306.393.305q3.773,0,7.547,0c.242,0,.365-.036.365-.326s-.171-.273-.363-.273Q1034.717,409.72,1032.852,409.718Z" transform="translate(-36.231 -112.898)" fill="#4e4e4e"/>
    <path id="Path_541" data-name="Path 541" d="M1145.341,405.883q0,2.406,0,4.812c0,.6-.18.783-.766.784q-4.552,0-9.1,0c-.607,0-.795-.191-.8-.808q0-4.812,0-9.623c0-.616.188-.809.8-.81q4.53,0,9.06,0c.651,0,.807.166.807.834Q1145.343,403.478,1145.341,405.883Zm-1.183-.01c0-1.344-.01-2.688.007-4.031,0-.338-.091-.439-.436-.437q-3.728.022-7.456,0c-.324,0-.411.085-.41.41q.02,4.053,0,8.106c0,.292.067.4.38.4q3.75-.018,7.5,0c.32,0,.425-.085.421-.413C1144.148,408.562,1144.158,407.218,1144.158,405.874Z" transform="translate(-131.01 -112.898)" fill="#4e4e4e"/>
    <path id="Path_542" data-name="Path 542" d="M1045.7,417.01a1.467,1.467,0,0,1-1.467,1.494,1.477,1.477,0,1,1,1.467-1.494Zm-1.183.011c-.039-.177-.133-.285-.323-.265a.254.254,0,0,0-.251.285.261.261,0,0,0,.315.261A.274.274,0,0,0,1044.513,417.021Z" transform="translate(-49.734 -126.437)" fill="#4e4e4e"/>
    <path id="Path_543" data-name="Path 543" d="M1155.187,423.98c0-.838-.008-1.677,0-2.515.008-.67.423-.918,1-.6q2.251,1.254,4.491,2.527c.571.325.573.837,0,1.163q-2.258,1.287-4.53,2.548c-.536.3-.952.05-.963-.57C1155.175,425.686,1155.187,424.833,1155.187,423.98Zm1.175,1.655,2.943-1.657c-.949-.534-1.828-1.027-2.707-1.522-.149-.084-.239-.087-.238.123C1156.363,423.57,1156.361,424.561,1156.361,425.635Z" transform="translate(-149.141 -131.016)" fill="#4e4e4e"/>
  </g>
</svg>
