<svg xmlns="http://www.w3.org/2000/svg" width="21.246" height="26.83" viewBox="0 0 21.246 26.83">
  <g id="Group_397" data-name="Group 397" transform="translate(-4841.383 -706.887)">
    <path id="Path_571" data-name="Path 571" d="M4862.627,721.151q0,5.122,0,10.244a2.178,2.178,0,0,1-2.259,2.322q-7.571,0-15.141,0a2.117,2.117,0,0,1-2.153-1.543.292.292,0,0,0-.2-.211,2.119,2.119,0,0,1-1.489-2.116q-.006-10.35,0-20.7a2.132,2.132,0,0,1,2.24-2.253q7.583-.011,15.168,0a2.12,2.12,0,0,1,2.148,1.55.276.276,0,0,0,.181.2,2.143,2.143,0,0,1,1.5,2.187q0,3.534,0,7.068Zm-20.407-1.681q0,5.148,0,10.3a1.44,1.44,0,0,0,.432,1.123,1.508,1.508,0,0,0,1.1.358q4.963,0,9.926,0c1.694,0,3.388,0,5.082,0a1.325,1.325,0,0,0,1.438-1.411q0-10.35,0-20.7a1.315,1.315,0,0,0-1.411-1.408q-7.583-.006-15.167,0a1.342,1.342,0,0,0-1.4,1.449Q4842.223,714.321,4842.22,719.469Zm18.813-9.977v.388c0,6.618-.012,13.236.009,19.854a2.241,2.241,0,0,1-2.349,2.35c-1.1-.042-2.206-.009-3.309-.009q-5.585,0-11.171,0c-.082,0-.2-.049-.24.046s.057.159.108.228a1.416,1.416,0,0,0,1.234.533q5.651-.006,11.3,0c1.235,0,2.471,0,3.706,0a1.43,1.43,0,0,0,1.046-.362,1.455,1.455,0,0,0,.422-1.127q0-10.258,0-20.515a2.747,2.747,0,0,0-.009-.291A1.348,1.348,0,0,0,4861.033,709.493Z" transform="translate(0)" fill="#4e4e4e"/>
    <path id="Path_572" data-name="Path 572" d="M4898.16,946.071h-5.607a2.319,2.319,0,0,1-.238,0,.418.418,0,0,1,0-.835,1.978,1.978,0,0,1,.212,0h11.294a1.28,1.28,0,0,1,.238.007.417.417,0,0,1,0,.828,1.329,1.329,0,0,1-.238.006Z" transform="translate(-46.965 -221.481)" fill="#4e4e4e"/>
    <path id="Path_573" data-name="Path 573" d="M4898.158,851.91h-5.613a1.56,1.56,0,0,1-.264-.008.383.383,0,0,1-.348-.373.376.376,0,0,1,.282-.423,1.089,1.089,0,0,1,.313-.034q5.652,0,11.3,0a1.11,1.11,0,0,1,.313.034.376.376,0,0,1,.286.421.385.385,0,0,1-.345.376,1.511,1.511,0,0,1-.264.008Z" transform="translate(-46.973 -133.984)" fill="#4e4e4e"/>
    <path id="Path_574" data-name="Path 574" d="M4898.19,992.328h5.661a1.093,1.093,0,0,1,.263.013.39.39,0,0,1,.322.37.4.4,0,0,1-.281.428.841.841,0,0,1-.314.028h-11.321a1.064,1.064,0,0,1-.263-.017.415.415,0,0,1,.035-.816,1.28,1.28,0,0,1,.237-.007Z" transform="translate(-46.976 -265.247)" fill="#4e4e4e"/>
    <path id="Path_575" data-name="Path 575" d="M4898.18,899h-5.66a1.138,1.138,0,0,1-.263-.011.388.388,0,0,1-.326-.366.393.393,0,0,1,.275-.431.907.907,0,0,1,.34-.03h11.268a2.1,2.1,0,0,1,.211,0,.415.415,0,0,1,.408.432.406.406,0,0,1-.434.4c-.5.007-1,0-1.508,0Z" transform="translate(-46.97 -177.739)" fill="#4e4e4e"/>
    <path id="Path_576" data-name="Path 576" d="M4898.2,804.888h-5.612a1.68,1.68,0,0,1-.316-.013.41.41,0,0,1-.033-.8,1.247,1.247,0,0,1,.315-.026q5.638,0,11.277,0a1.173,1.173,0,0,1,.314.028.409.409,0,0,1-.043.8,1.616,1.616,0,0,1-.29.012Z" transform="translate(-46.978 -90.291)" fill="#4e4e4e"/>
    <path id="Path_577" data-name="Path 577" d="M4898.17,757.061h5.612a1.506,1.506,0,0,1,.316.016.409.409,0,0,1,.01.8,1.373,1.373,0,0,1-.315.021h-11.25c-.044,0-.088,0-.132,0-.321-.012-.5-.164-.493-.426s.181-.406.51-.407Q4895.3,757.059,4898.17,757.061Z" transform="translate(-46.959 -46.625)" fill="#4e4e4e"/>
  </g>
</svg>
