<svg xmlns="http://www.w3.org/2000/svg" width="45.75" height="45.736" viewBox="0 0 45.75 45.736">
  <g id="Group_422" data-name="Group 422" transform="translate(-3782.134 180.545)">
    <path id="Path_610" data-name="Path 610" d="M3783.02-158.308a.964.964,0,0,1,.864,1.119c-.016,2.058-.006,4.115-.006,6.173v.73l2.253-2.654q3-3.542,6.007-7.083a3.362,3.362,0,0,1,5.463.018q4.19,4.938,8.368,9.887c.313.372.457.4.785.008,1.9-2.284,3.833-4.547,5.76-6.812a3.365,3.365,0,0,1,5.463-.006q4.057,4.77,8.1,9.558c.2-.115.1-.3.1-.435q.008-13.446,0-26.892a4,4,0,0,0-4.124-4.131q-17.023-.008-34.045,0a4,4,0,0,0-4.137,4.118c-.008,2.221-.016,4.441.007,6.662a1.035,1.035,0,0,1-.864,1.2,1.033,1.033,0,0,1-.866-1.194c.024-2.22,0-4.441.011-6.662a5.712,5.712,0,0,1,5.84-5.831q17.022-.013,34.045,0a5.7,5.7,0,0,1,5.843,5.827q.014,17.021,0,34.042a5.708,5.708,0,0,1-5.879,5.855q-16.991.01-33.983,0a5.715,5.715,0,0,1-5.865-5.869c-.009-5.5,0-11-.009-16.5C3782.159-157.811,3782.386-158.2,3783.02-158.308Z" transform="translate(-0.019)" fill="#01014c"/>
    <path id="Path_611" data-name="Path 611" d="M3782.757-78.885c.712.01,1.023.227,1.1.768.12.872-.1,1.246-.854,1.472a.882.882,0,0,1-.844-.808C3782.107-78.024,3782.078-78.609,3782.757-78.885Z" transform="translate(0 -85.047)" fill="#02024d"/>
    <path id="Path_612" data-name="Path 612" d="M3917.235-129.587a4.513,4.513,0,0,1-4.577,4.5,4.544,4.544,0,0,1-4.468-4.556,4.54,4.54,0,0,1,4.652-4.492A4.508,4.508,0,0,1,3917.235-129.587Z" transform="translate(-105.456 -38.822)" fill="#01014c"/>
    <path id="Path_613" data-name="Path 613" d="M3824-29.851h-27.016a4.037,4.037,0,0,1-4.331-4.354c0-2.077.008-4.155-.008-6.232a1.316,1.316,0,0,1,.344-.932q4.6-5.392,9.172-10.8c.975-1.15,1.969-1.157,2.956,0q4.865,5.724,9.719,11.458,4.365,5.147,8.728,10.3C3823.688-30.262,3823.8-30.1,3824-29.851Z" transform="translate(-8.791 -106.673)" fill="#804e08"/>
    <path id="Path_614" data-name="Path 614" d="M3950.422-14.032a6.617,6.617,0,0,1-2.531-.071c-.708-.321-1.162-1.209-1.715-1.859-2.676-3.151-5.34-6.311-8.03-9.45-.292-.341-.268-.521.006-.842,2.028-2.365,4.034-4.748,6.052-7.122a1.645,1.645,0,0,1,2.719-.006q4.669,5.492,9.33,10.99a1,1,0,0,1,.262.713c-.013,1.222.006,2.444-.008,3.666a4.015,4.015,0,0,1-4.008,4c-.692.009-1.385,0-2.078,0Z" transform="translate(-130.342 -122.516)" fill="#a97e01"/>
    <path id="Path_615" data-name="Path 615" d="M3924.3-120.828a2.794,2.794,0,0,1-2.845,2.794,2.834,2.834,0,0,1-2.766-2.768,2.829,2.829,0,0,1,2.8-2.855A2.793,2.793,0,0,1,3924.3-120.828Z" transform="translate(-114.239 -47.592)" fill="#ffefcf"/>
  </g>
</svg>
