<svg xmlns="http://www.w3.org/2000/svg" width="23.596" height="23.634" viewBox="0 0 23.596 23.634">
  <g id="Group_317" data-name="Group 317" transform="translate(0.254 0.25)">
    <path id="Path_491" data-name="Path 491" d="M504.666,192.75c.446.059.894.1,1.337.179a11.236,11.236,0,0,1,5,2.2.455.455,0,1,1-.539.721,10.62,10.62,0,0,0-16.765,5.812,10.359,10.359,0,0,0,3.051,10.472c.047.046.1.087.134.116,1.191-3.718,3.638-5.788,7.619-5.635a7.1,7.1,0,0,1,6.54,5.637c.084.017.118-.055.164-.1a10.7,10.7,0,0,0,1.952-13.253c-.023-.039-.045-.078-.065-.119a.448.448,0,0,1,.152-.612.44.44,0,0,1,.624.163,10.767,10.767,0,0,1,.9,1.84,11.409,11.409,0,0,1,.727,3.246,1.224,1.224,0,0,0,.038.175v1.446a1.384,1.384,0,0,0-.055.445,11.581,11.581,0,0,1-9.5,10.224c-.419.074-.845.118-1.267.175h-1.443a3,3,0,0,0-.644-.08,11.105,11.105,0,0,1-6.836-3.361,11.3,11.3,0,0,1-3.019-10.83,11.5,11.5,0,0,1,9.209-8.684c.428-.071.86-.119,1.29-.178Zm-.717,22.232a10.588,10.588,0,0,0,5.85-1.729c.475-.31.475-.31.341-.875a6.28,6.28,0,0,0-8.395-4.482,6.131,6.131,0,0,0-3.975,4.789.34.34,0,0,0,.165.407A10.59,10.59,0,0,0,503.949,214.982Z" transform="translate(-492.441 -192.75)" fill="#804e08" stroke="#804e08" stroke-width="0.5"/>
    <path id="Path_492" data-name="Path 492" d="M624.875,276.336a4.058,4.058,0,1,1-4.041-4.083A4.07,4.07,0,0,1,624.875,276.336Zm-4.061,3.146a3.163,3.163,0,1,0-3.154-3.159A3.166,3.166,0,0,0,620.814,279.482Z" transform="translate(-609.268 -267.463)" fill="#804e08" stroke="#804e08" stroke-width="0.5"/>
    <path id="Path_493" data-name="Path 493" d="M815.293,254.731a.449.449,0,1,1-.429-.459A.455.455,0,0,1,815.293,254.731Z" transform="translate(-794.999 -250.565)" fill="#804e08" stroke="#804e08" stroke-width="0.5"/>
  </g>
</svg>
