<svg xmlns="http://www.w3.org/2000/svg" width="28.127" height="23.736" viewBox="0 0 28.127 23.736">
  <g id="Group_400" data-name="Group 400" transform="translate(-2569.421 -208.761)">
    <path id="Path_578" data-name="Path 578" d="M2597.548,230.131a5.691,5.691,0,0,1-.239.721,2.676,2.676,0,0,1-2.547,1.637c-2.06.014-4.119,0-6.179,0q-8.157,0-16.313,0a2.753,2.753,0,0,1-2.768-2.1,3.027,3.027,0,0,1-.081-.734q0-9.035,0-18.071a2.739,2.739,0,0,1,2.826-2.826q4.312-.006,8.623,0a1.519,1.519,0,0,1,.219.007.547.547,0,0,1,.008,1.082,2.045,2.045,0,0,1-.3.009h-8.459a1.663,1.663,0,0,0-1.819,1.826q0,6.4-.007,12.8c0,.271.072.324.331.324q12.647-.011,25.293,0c.241,0,.318-.049.318-.308q-.014-6.426-.007-12.853a1.654,1.654,0,0,0-1.777-1.786h-8.486a2.386,2.386,0,0,1-.274-.005.546.546,0,0,1,.008-1.089,2.636,2.636,0,0,1,.275,0h8.349a2.752,2.752,0,0,1,2.972,2.321c0,.016.022.028.033.041Zm-14.065-4.23q-6.316,0-12.633-.006c-.249,0-.342.037-.337.318.019,1.144.006,2.288.008,3.433a1.652,1.652,0,0,0,1.76,1.748h22.41a1.652,1.652,0,0,0,1.758-1.751c0-1.144-.007-2.289.006-3.433,0-.247-.057-.316-.311-.315Q2589.813,225.908,2583.483,225.9Z" fill="#4e4e4e"/>
    <path id="Path_579" data-name="Path 579" d="M2722.812,284.732c0-.549-.005-1.1,0-1.647a1.551,1.551,0,0,1,2.331-1.383q1.478.811,2.92,1.688a1.54,1.54,0,0,1,.01,2.664q-1.449.888-2.943,1.7a1.55,1.55,0,0,1-2.317-1.377C2722.805,285.83,2722.812,285.281,2722.812,284.732Zm1.1-.007c0,.531,0,1.061,0,1.592a.47.47,0,0,0,.761.441q1.382-.787,2.755-1.59a.471.471,0,0,0,0-.883q-1.373-.8-2.755-1.59a.47.47,0,0,0-.762.439C2723.907,283.664,2723.91,284.194,2723.91,284.725Z" transform="translate(-142.131 -67.394)" fill="#4e4e4e"/>
    <path id="Path_580" data-name="Path 580" d="M2754.76,209.365a.547.547,0,0,1-.543.535.547.547,0,1,1,0-1.095A.546.546,0,0,1,2754.76,209.365Z" transform="translate(-170.723 -0.041)" fill="#4e4e4e"/>
    <path id="Path_581" data-name="Path 581" d="M2706.343,472.249h6.616a2.456,2.456,0,0,1,.274.005.547.547,0,0,1,0,1.089,2.515,2.515,0,0,1-.274,0h-13.232c-.507,0-.762-.179-.77-.538s.258-.561.774-.561Z" transform="translate(-120.026 -244.15)" fill="#4e4e4e"/>
    <path id="Path_582" data-name="Path 582" d="M2621.816,458.94a1.647,1.647,0,1,1,1.631,1.654A1.647,1.647,0,0,1,2621.816,458.94Zm2.194.012a.558.558,0,0,0-.53-.552.548.548,0,0,0-.038,1.094A.558.558,0,0,0,2624.01,458.952Z" transform="translate(-48.55 -230.299)" fill="#4e4e4e"/>
  </g>
</svg>
