<svg xmlns="http://www.w3.org/2000/svg" width="29.593" height="27.683" viewBox="0 0 29.593 27.683">
  <g id="Group_320" data-name="Group 320" transform="translate(0.099 0.1)">
    <path id="Path_506" data-name="Path 506" d="M521.889,232.291a1.178,1.178,0,0,1-1.271.8q-13.461-.014-26.921-.006a1.041,1.041,0,0,1-1.164-.762,1.491,1.491,0,0,1-.036-.369q0-11.747,0-23.495a2.735,2.735,0,0,1,2.837-2.847q1.306-.007,2.612,0c.323,0,.527.191.513.454a.44.44,0,0,1-.5.406c-.851,0-1.7,0-2.554,0a1.891,1.891,0,0,0-2.05,2.06c0,.393.007.786,0,1.179,0,.161.044.231.209.211a1.622,1.622,0,0,1,.2,0h26.864c.4,0,.4,0,.4-.416,0-.374,0-.748,0-1.122a1.874,1.874,0,0,0-1.854-1.909c-.105,0-.21,0-.316,0H500.345c-.105,0-.211,0-.316,0a.4.4,0,0,1-.415-.393.414.414,0,0,1,.381-.457,2.133,2.133,0,0,1,.315-.009H518.88a2.748,2.748,0,0,1,2.974,2.3c0,.016.023.029.035.043ZM507.2,210.785q-6.744,0-13.488-.006c-.275,0-.367.046-.366.352q.015,10.337.008,20.674c0,.417,0,.418.408.418h26.861c.4,0,.4,0,.4-.4q0-10.351.007-20.7c0-.277-.065-.346-.343-.345Q513.947,210.792,507.2,210.785Z" transform="translate(-492.495 -205.609)" fill="#4e4e4e" stroke="#4e4e4e" stroke-width="0.2"/>
    <path id="Path_507" data-name="Path 507" d="M793.118,234.754a.441.441,0,0,1-.423-.451.428.428,0,0,1,.856.011A.44.44,0,0,1,793.118,234.754Z" transform="translate(-769.671 -231.729)" fill="#4e4e4e" stroke="#4e4e4e" stroke-width="0.2"/>
    <path id="Path_508" data-name="Path 508" d="M764.043,234.325a.423.423,0,1,1-.846.011.423.423,0,1,1,.846-.011Z" transform="translate(-742.435 -231.737)" fill="#4e4e4e" stroke="#4e4e4e" stroke-width="0.2"/>
    <path id="Path_509" data-name="Path 509" d="M822.783,234.758a.43.43,0,0,1-.435-.4.423.423,0,1,1,.844-.057A.433.433,0,0,1,822.783,234.758Z" transform="translate(-797.048 -231.733)" fill="#4e4e4e" stroke="#4e4e4e" stroke-width="0.2"/>
    <path id="Path_510" data-name="Path 510" d="M574.455,318.583h5.1c.478,0,.957,0,1.435,0,.336,0,.521.168.515.445s-.183.415-.51.416q-4.894,0-9.787,0a1.243,1.243,0,0,1-1.274-1.216c-.006-.086-.005-.172-.005-.259q0-6.255,0-12.509a1.441,1.441,0,0,1,.363-1.084,1.215,1.215,0,0,1,.871-.383c.765-.01,1.531-.007,2.3,0a.429.429,0,0,1,.443.3.408.408,0,0,1-.118.446.526.526,0,0,1-.4.112c-.679,0-1.359,0-2.038,0-.422,0-.55.13-.55.554q0,4.414,0,8.828c0,.073-.026.154.039.22.1-.026.15-.114.216-.179.577-.574,1.148-1.154,1.727-1.726a.851.851,0,0,1,1.336,0c.782.776,1.562,1.553,2.331,2.341.164.168.246.178.418,0q2.546-2.573,5.11-5.129a1,1,0,0,1,1.636-.008q1.362,1.36,2.721,2.724c.065.065.115.153.219.179.067-.1.034-.206.034-.307q0-3.408,0-6.815c0-.6-.089-.688-.677-.688H575.83c-.086,0-.172,0-.258,0-.3-.013-.475-.175-.475-.425s.18-.414.474-.434c.057,0,.115,0,.172,0q5.123,0,10.246,0a1.442,1.442,0,0,1,1.036.338,1.379,1.379,0,0,1,.419,1.089q-.006,3.106,0,6.212,0,3.206,0,6.413a1.276,1.276,0,0,1-.948,1.367,1.352,1.352,0,0,1-.34.041q-1.478,0-2.956,0c-.346,0-.533-.185-.5-.477.025-.246.2-.383.516-.384.918,0,1.837,0,2.755,0,.516,0,.615-.1.616-.626,0-1.237,0-2.473,0-3.71a.61.61,0,0,0-.191-.48q-1.693-1.679-3.369-3.376c-.169-.171-.271-.2-.457-.014q-3.979,4-7.971,8A.339.339,0,0,0,574.455,318.583Zm-3.664-1.742c0,.529-.006.893,0,1.257s.144.481.5.483c.564,0,1.128,0,1.692,0a.416.416,0,0,0,.325-.14q1.284-1.294,2.576-2.579c.117-.116.147-.187.012-.319q-1.165-1.148-2.311-2.316c-.119-.121-.182-.1-.291.007-.529.539-1.036,1.108-1.61,1.6C570.994,315.419,570.546,316.058,570.792,316.841Z" transform="translate(-563.989 -296.438)" fill="#4e4e4e" stroke="#4e4e4e" stroke-width="0.2"/>
    <path id="Path_511" data-name="Path 511" d="M636.43,341.151a2.239,2.239,0,1,1-2.248-2.234A2.244,2.244,0,0,1,636.43,341.151Zm-.861.006a1.363,1.363,0,0,0-1.36-1.377,1.382,1.382,0,0,0-1.4,1.377,1.4,1.4,0,0,0,1.4,1.385A1.38,1.38,0,0,0,635.569,341.157Z" transform="translate(-621.256 -328.693)" fill="#4e4e4e" stroke="#4e4e4e" stroke-width="0.2"/>
    <path id="Path_512" data-name="Path 512" d="M525.763,392.258a.569.569,0,0,1-.339-.166c-.492-.454-.989-.9-1.479-1.359a.435.435,0,0,1,0-.735q.735-.685,1.48-1.358a.436.436,0,0,1,.659-.02.443.443,0,0,1-.08.658c-.342.321-.685.64-1.038.948-.128.112-.123.177,0,.286.366.323.723.655,1.08.987a.433.433,0,0,1-.286.758Z" transform="translate(-521.347 -374.454)" fill="#4e4e4e" stroke="#4e4e4e" stroke-width="0.2"/>
    <path id="Path_513" data-name="Path 513" d="M812.9,392.263a.417.417,0,0,1-.379-.249.427.427,0,0,1,.118-.521c.346-.317.684-.641,1.04-.946.158-.135.155-.213,0-.347-.341-.293-.667-.6-1-.91-.234-.218-.268-.461-.1-.656s.434-.2.68.021q.735.664,1.46,1.338a.444.444,0,0,1,0,.757c-.483.45-.973.892-1.458,1.339A.559.559,0,0,1,812.9,392.263Z" transform="translate(-787.938 -374.46)" fill="#4e4e4e" stroke="#4e4e4e" stroke-width="0.2"/>
  </g>
</svg>
