<svg xmlns="http://www.w3.org/2000/svg" width="22.099" height="24.757" viewBox="0 0 22.099 24.757">
  <g id="Group_406" data-name="Group 406" transform="translate(-3774.234 -498.638)">
    <path id="Path_589" data-name="Path 589" d="M3793.195,498.638a.894.894,0,0,1,.369.367,19.968,19.968,0,0,1,1.724,3.341,2.326,2.326,0,0,1-.4,2.463c-.125.149-.011.19.07.257a9.018,9.018,0,0,1,1.993,2.188,4.483,4.483,0,0,1,.785,2.715,2.646,2.646,0,0,1-.866,1.977,2.265,2.265,0,0,1-1.642.511c-.2-.011-.255.049-.252.251a53.585,53.585,0,0,1-.239,5.962,17.246,17.246,0,0,1-.627,3.512,2.863,2.863,0,0,1-.359.788.789.789,0,0,1-1.406-.007,4.764,4.764,0,0,1-.6-1.7,33.32,33.32,0,0,1-.581-5.519c-.03-.708-.034-1.418-.052-2.126,0-.045.019-.1-.042-.151a4.631,4.631,0,0,0-1.314,1.539,5.017,5.017,0,0,0-.552,2.827,4.586,4.586,0,0,1-2.061,4.456,4.638,4.638,0,0,1-4.434.476,10.482,10.482,0,0,1-6.959-8.467c-.016-.087-.019-.176-.03-.264a.493.493,0,0,1,.392-.6.475.475,0,0,1,.554.44,9.718,9.718,0,0,0,.667,2.537,9.513,9.513,0,0,0,5.857,5.494,3.8,3.8,0,0,0,4.767-2,4.25,4.25,0,0,0,.285-2.036,5.717,5.717,0,0,1,2.726-5.5.316.316,0,0,0,.161-.291c.043-1.393.106-2.785.273-4.17a17.953,17.953,0,0,1,.411-2.377.242.242,0,0,0-.122-.313,2.319,2.319,0,0,1-.931-1.256.314.314,0,0,0-.175-.238,9.89,9.89,0,0,0-7.688-.317,9.571,9.571,0,0,0-5.963,6.582c-.018.062-.031.125-.05.186a.484.484,0,1,1-.934-.249,8.593,8.593,0,0,1,.462-1.422,10.518,10.518,0,0,1,8.284-6.562,10.717,10.717,0,0,1,5.736.681c.221.085.293.079.374-.167a16.04,16.04,0,0,1,1.608-3.208,1.577,1.577,0,0,1,.487-.612Zm-.158,23.575a1.069,1.069,0,0,0,.165-.364,13.422,13.422,0,0,0,.477-2.435c.2-1.616.277-3.24.324-4.866.038-1.289,0-2.577-.049-3.864-.008-.195-.054-.263-.267-.232a4.3,4.3,0,0,1-1.252,0c-.23-.034-.283.038-.292.253a50.969,50.969,0,0,0,.424,9.733A7.058,7.058,0,0,0,3793.036,522.213Zm.028-22.167a14.874,14.874,0,0,0-1.409,2.916,1.165,1.165,0,0,0,.029.712,1.45,1.45,0,0,0,1.811.947,1.408,1.408,0,0,0,.932-1.8A15.706,15.706,0,0,0,3793.064,500.046Zm1.313,5.8c.014.1.02.167.032.229a32.871,32.871,0,0,1,.524,4.991c.019.428.011.429.451.423a1.226,1.226,0,0,0,1.215-.785,2.592,2.592,0,0,0,.147-1.306,4.789,4.789,0,0,0-1.217-2.452A7.255,7.255,0,0,0,3794.377,505.851Zm-1.31,3.679c.216-.016.433-.039.649-.047.128,0,.161-.053.149-.177a26.286,26.286,0,0,0-.489-3.436c-.029-.125-.043-.262-.234-.222-.157.033-.357-.093-.422.2a28.523,28.523,0,0,0-.487,3.461c-.01.109.014.155.134.168C3792.6,509.506,3792.833,509.518,3793.067,509.53Z" transform="translate(-1.411)" fill="#4e4e4e"/>
    <path id="Path_590" data-name="Path 590" d="M3963.482,616.133a1.933,1.933,0,1,1,1.931,1.942A1.938,1.938,0,0,1,3963.482,616.133Zm1.925-.958a.966.966,0,1,0,.974.958A.969.969,0,0,0,3965.407,615.175Z" transform="translate(-180.063 -109.961)" fill="#4e4e4e"/>
    <path id="Path_591" data-name="Path 591" d="M3857.768,665.958a1.933,1.933,0,1,1-1.931-1.941A1.939,1.939,0,0,1,3857.768,665.958Zm-1.935-.974a.966.966,0,1,0,.968.965A.969.969,0,0,0,3855.833,664.984Z" transform="translate(-75.801 -157.352)" fill="#4e4e4e"/>
    <path id="Path_592" data-name="Path 592" d="M3827.884,785.5a1.933,1.933,0,1,1-1.932-1.94A1.939,1.939,0,0,1,3827.884,785.5Zm-.967-.013a.966.966,0,1,0-.96.972A.969.969,0,0,0,3826.917,785.487Z" transform="translate(-47.367 -271.093)" fill="#4e4e4e"/>
    <path id="Path_593" data-name="Path 593" d="M3915.628,863.253a1.933,1.933,0,1,1-1.954,1.918A1.938,1.938,0,0,1,3915.628,863.253Zm.945,1.939a.966.966,0,1,0-.972.961A.969.969,0,0,0,3916.573,865.192Z" transform="translate(-132.672 -346.917)" fill="#4e4e4e"/>
    <path id="Path_594" data-name="Path 594" d="M3775.2,764.138a.482.482,0,1,1-.467-.485A.487.487,0,0,1,3775.2,764.138Z" transform="translate(0 -252.152)" fill="#4e4e4e"/>
  </g>
</svg>
