<svg xmlns="http://www.w3.org/2000/svg" width="25.676" height="25.67" viewBox="0 0 25.676 25.67">
  <g id="Group_403" data-name="Group 403" transform="translate(-3101.548 -626.288)">
    <path id="Path_583" data-name="Path 583" d="M3101.548,645.89a7.411,7.411,0,0,1,.216-.739,2.786,2.786,0,0,1,1.41-1.529c.2-.094.2-.18.13-.358a11.3,11.3,0,0,1-.748-4.416,11.594,11.594,0,0,1,3.567-8.193,11.31,11.31,0,0,1,6.578-3.246,11.578,11.578,0,0,1,9.891,3.2c.278.263.648.244.936.44.042.029.077,0,.077-.057s0-.117,0-.175q0-1.58,0-3.159c0-.407.093-.525.488-.638.818-.235,1.635-.474,2.453-.706a.5.5,0,0,1,.656.335.509.509,0,0,1-.365.622c-.071.024-.144.041-.217.062-.609.175-1.218.354-1.829.524-.132.037-.188.089-.187.237q0,2.47-.006,4.94a.511.511,0,0,0,.085.257,11.71,11.71,0,0,1,1.476,7,11.593,11.593,0,0,1-1.884,5.33.5.5,0,1,1-.835-.549,10.871,10.871,0,0,0,.659-10.748c-.106.014-.148.1-.209.149a2.1,2.1,0,1,1-2.564-3.316c.194-.128.209-.18.025-.331a10.32,10.32,0,0,0-7.788-2.48,10.507,10.507,0,0,0-9.47,7.45,10.294,10.294,0,0,0,.22,7.332.239.239,0,0,0,.255.177,2.835,2.835,0,0,1,1.534.477c.115.078.188.044.29-.018a2.938,2.938,0,0,1,4.449,1.831,2.844,2.844,0,0,1-.728,2.688,7.513,7.513,0,0,1-.587.522,10.4,10.4,0,0,0,2.794.951,10.736,10.736,0,0,0,7.941-1.533.633.633,0,0,1,.464-.147.5.5,0,0,1,.178.925,10.848,10.848,0,0,1-1.895,1.016,11.731,11.731,0,0,1-9.986-.346.261.261,0,0,0-.362.065c-.644.656-1.3,1.3-1.946,1.954a1.4,1.4,0,0,1-.356.272h-.251a1.4,1.4,0,0,1-.337-.255q-1.655-1.66-3.313-3.317a4.516,4.516,0,0,1-.314-.357,3.309,3.309,0,0,1-.6-1.437Zm8.379.306a1.957,1.957,0,0,0-3.253-1.4c-.332.28-.541.289-.855.013a1.949,1.949,0,0,0-2.7,2.812c.987,1.01,2,2,2.99,3,.1.1.156.1.255,0,.995-1,2-2,2.992-3A2,2,0,0,0,3109.927,646.2Zm11.475-13.323a1.1,1.1,0,0,0,1.1,1.126,1.12,1.12,0,0,0,1.108-1.1,1.106,1.106,0,0,0-1.091-1.108A1.09,1.09,0,0,0,3121.4,632.872Z" transform="translate(0 0)" fill="#4e4e4e"/>
    <path id="Path_584" data-name="Path 584" d="M3227.53,756.868a4.714,4.714,0,1,1,4.709-4.726A4.722,4.722,0,0,1,3227.53,756.868Zm-3.715-4.713a3.711,3.711,0,1,0,3.715-3.712A3.716,3.716,0,0,0,3223.815,752.155Z" transform="translate(-113.139 -113.035)" fill="#4e4e4e"/>
    <path id="Path_585" data-name="Path 585" d="M3295.654,811.263a9.457,9.457,0,0,1-9.364,9.035.515.515,0,0,1-.583-.486.5.5,0,0,1,.551-.513,8.49,8.49,0,0,0,8.4-8.127c.007-.133.006-.268.022-.4a.487.487,0,0,1,.472-.436.5.5,0,0,1,.5.378A2.213,2.213,0,0,1,3295.654,811.263Z" transform="translate(-171.82 -171.717)" fill="#4e4e4e"/>
    <path id="Path_586" data-name="Path 586" d="M3293.281,811.138a7.043,7.043,0,0,1-7,6.774c-.35,0-.572-.187-.578-.485a.507.507,0,0,1,.558-.514,5.677,5.677,0,0,0,2.563-.6,5.989,5.989,0,0,0,3.457-5.329,1.4,1.4,0,0,1,.036-.3.492.492,0,0,1,.964.1C3293.289,810.9,3293.281,811.022,3293.281,811.138Z" transform="translate(-171.816 -171.712)" fill="#4e4e4e"/>
    <path id="Path_587" data-name="Path 587" d="M3405.886,931.025a.5.5,0,0,1-.492-.5.487.487,0,0,1,.511-.5.5.5,0,0,1,.486.5A.517.517,0,0,1,3405.886,931.025Z" transform="translate(-283.489 -283.388)" fill="#4e4e4e"/>
    <path id="Path_588" data-name="Path 588" d="M3261.035,787.989a2.306,2.306,0,1,1,2.322-2.3A2.314,2.314,0,0,1,3261.035,787.989Zm1.319-2.3a1.3,1.3,0,1,0-1.312,1.3A1.308,1.308,0,0,0,3262.354,785.685Z" transform="translate(-146.665 -146.563)" fill="#4e4e4e"/>
  </g>
</svg>
