<svg xmlns="http://www.w3.org/2000/svg" width="21.482" height="21.471" viewBox="0 0 21.482 21.471">
  <g id="Group_419" data-name="Group 419" transform="translate(-3639.793 -138.256)">
    <path id="Path_608" data-name="Path 608" d="M3639.793,148.329c.054-.393.088-.79.163-1.178a10.44,10.44,0,0,1,6.439-8.043,10.655,10.655,0,0,1,14.024,5.776,10.45,10.45,0,0,1-.957,10.017.837.837,0,1,1-1.408-.9,8.944,8.944,0,0,0,1.4-3.6,8.83,8.83,0,0,0-2.047-7.258,8.57,8.57,0,0,0-5.562-3.091,8.8,8.8,0,0,0-8.343,3.25,8.391,8.391,0,0,0-2.014,6.094,9.066,9.066,0,0,0,13.653,7.383.839.839,0,0,1,1.158,1.19,1,1,0,0,1-.3.252,10.621,10.621,0,0,1-4.625,1.465.333.333,0,0,0-.182.038h-1.341a1.066,1.066,0,0,0-.161-.035,10.377,10.377,0,0,1-1.51-.22,10.746,10.746,0,0,1-8.22-8.6c-.066-.4-.111-.8-.165-1.2Z" transform="translate(0 0)" fill="#fff"/>
    <path id="Path_609" data-name="Path 609" d="M3725.668,221.087c0,.468.006.935,0,1.4,0,.142.045.172.178.171.893-.005,1.787,0,2.68,0a.841.841,0,1,1,0,1.675c-.887,0-1.773.005-2.66,0-.17,0-.2.052-.2.21q.011,1.361,0,2.722a.837.837,0,0,1-1.572.4.943.943,0,0,1-.1-.464c0-.873-.008-1.745.007-2.617,0-.223-.067-.257-.267-.255-.886.01-1.773.01-2.659,0a.837.837,0,1,1,.02-1.673c.887,0,1.773-.008,2.66.005.21,0,.247-.061.245-.255-.011-.893-.008-1.787,0-2.68a.837.837,0,0,1,1.572-.4.9.9,0,0,1,.1.443C3725.666,220.207,3725.668,220.647,3725.668,221.087Z" transform="translate(-74.31 -74.497)" fill="#fff"/>
  </g>
</svg>
