<svg xmlns="http://www.w3.org/2000/svg" width="26.682" height="26.83" viewBox="0 0 26.682 26.83">
  <g id="Group_394" data-name="Group 394" transform="translate(-3246.454 338.802)">
    <path id="Path_568" data-name="Path 568" d="M3267.493-338.8a.6.6,0,0,1,.258.56c-.013.453,0,.906,0,1.387.411-.137.8-.268,1.184-.391.274-.087.552-.161.828-.243a.5.5,0,0,1,.543.152c.349.367.713.719,1.063,1.085.095.1.168.124.285.039a.955.955,0,0,1,1.486.886c-.022,3.86-.01,7.719-.01,11.579a1.354,1.354,0,0,1-.01.209.365.365,0,0,1-.392.344.359.359,0,0,1-.372-.336,2.46,2.46,0,0,1-.012-.34q0-5.659,0-11.317a2.073,2.073,0,0,0-.007-.262c-.017-.133-.09-.186-.219-.12-.07.035-.138.076-.206.114q-4.8,2.7-9.6,5.394a.618.618,0,0,0-.367.631q.016,7.912.008,15.823c0,.07,0,.14,0,.21.007.276.073.318.313.185q1.155-.643,2.305-1.292,3.751-2.11,7.5-4.217a.456.456,0,0,0,.278-.469c-.016-.593-.006-1.187,0-1.781a.432.432,0,0,1,.132-.381.4.4,0,0,1,.418-.061.347.347,0,0,1,.231.347c0,.725.008,1.449-.007,2.174a.92.92,0,0,1-.557.795q-2.124,1.188-4.243,2.385l-5.633,3.169a1.028,1.028,0,0,1-.793.18c-.089-.024-.126.03-.173.082a.972.972,0,0,1-.773.315q-1.152-.008-2.305,0a.955.955,0,0,1-.771-.317.189.189,0,0,0-.2-.077,1.041,1.041,0,0,1-.7-.15q-4.995-2.809-9.989-5.618a.939.939,0,0,1-.518-.848q0-.079,0-.157,0-8.082,0-16.164a.951.951,0,0,1,.7-1.056.886.886,0,0,1,.748.133.216.216,0,0,0,.328-.046c.317-.337.66-.65.968-1a.641.641,0,0,1,.747-.193c.618.182,1.232.374,1.885.617,0-.479.008-.926,0-1.374a.6.6,0,0,1,.257-.586h.262c.349.156.7.3,1.047.469a12.389,12.389,0,0,1,5.771,5.307c.23.426.416.873.6,1.313.079-.013.076-.066.09-.1a11.782,11.782,0,0,1,5.126-5.88,20.23,20.23,0,0,1,2.246-1.107Zm-9.856,17.288h0q0-4.033,0-8.067a.414.414,0,0,0-.244-.413q-3.14-1.756-6.273-3.522-1.79-1.006-3.58-2.014c-.229-.129-.292-.091-.3.168,0,.052,0,.1,0,.157q0,7.988-.005,15.977a.5.5,0,0,0,.294.512q4.874,2.728,9.738,5.473c.306.172.369.132.369-.23Q3257.637-317.494,3257.637-321.514Zm.759-11.213a11.427,11.427,0,0,0-5.647-5.038c-.123-.056-.13.006-.129.1,0,.3.011.594,0,.89a.312.312,0,0,0,.222.351c.439.191.869.4,1.3.618.264.131.34.333.23.551s-.316.277-.578.153c-.063-.03-.125-.062-.187-.094a21.294,21.294,0,0,0-3.615-1.439.34.34,0,0,0-.409.109c-.177.2-.377.389-.566.582-.212.216-.212.217.046.362,2.874,1.617,5.752,3.224,8.616,4.859a2.406,2.406,0,0,0,1.479.228,9.51,9.51,0,0,0-1.086-1.407,14,14,0,0,0-2.072-1.842.4.4,0,0,1-.014-.691c.19-.12.346-.039.5.076A17.177,17.177,0,0,1,3258.4-332.727Zm2.762,11.506c0-1.553,0-3.106,0-4.659,0-.168-.023-.247-.222-.244-.767.012-1.535.01-2.3,0-.175,0-.217.054-.217.222q.007,4.672,0,9.344c0,.185.054.235.236.233.75-.01,1.5-.012,2.251,0,.213,0,.258-.066.257-.265C3261.155-318.133,3261.158-319.677,3261.158-321.222Zm-.717-9.292a2.24,2.24,0,0,0,1.724-.354c1.047-.628,2.124-1.205,3.188-1.8q2.611-1.469,5.224-2.935c.165-.092.2-.151.047-.289a7.81,7.81,0,0,1-.624-.635.337.337,0,0,0-.41-.1,20.774,20.774,0,0,0-2.744,1.017,16.113,16.113,0,0,0-5.369,3.755A9,9,0,0,0,3260.441-330.514Zm.734-2.216c.392-.354.776-.716,1.185-1.051a18.743,18.743,0,0,1,4.373-2.644c.1-.043.229-.05.229-.209,0-.381,0-.762,0-1.188A11.655,11.655,0,0,0,3261.175-332.73Zm-1.4,4.084c.4,0,.8,0,1.2,0,.135,0,.187-.041.182-.179-.008-.217-.007-.436,0-.653,0-.159-.063-.215-.218-.214q-1.15.006-2.3,0c-.178,0-.226.079-.22.239.008.2.01.4,0,.6-.009.159.045.212.207.208C3259.01-328.653,3259.393-328.646,3259.776-328.646Zm0,15.887c.384,0,.767,0,1.15,0,.167,0,.239-.059.233-.229a5.609,5.609,0,0,1,0-.6c.012-.173-.049-.222-.219-.22-.584.01-1.168,0-1.752.006-.249,0-.6-.116-.721.052s-.035.5-.047.761c-.008.169.063.234.231.23C3259.027-312.764,3259.4-312.76,3259.777-312.76Zm.014-15.1c-.218,0-.437-.008-.654,0s-.547-.108-.671.053-.027.451-.045.684c-.013.173.049.221.219.218.593-.01,1.187,0,1.78-.007.24,0,.569.112.7-.052s.03-.467.044-.71c.009-.149-.043-.2-.192-.193C3260.576-327.854,3260.183-327.86,3259.79-327.86Zm-.024,13.271c.227,0,.454,0,.68,0s.531.075.656-.04c.161-.148.029-.46.057-.7.02-.176-.053-.219-.22-.217-.593.009-1.187,0-1.78.007-.24,0-.567-.114-.7.054s-.029.468-.044.711c-.01.153.051.192.195.189C3259-314.6,3259.383-314.589,3259.767-314.589Z" fill="#fff"/>
    <path id="Path_569" data-name="Path 569" d="M3483.985-235.535c0-.375.011-.751,0-1.125a.543.543,0,0,1,.316-.545q2.876-1.633,5.745-3.28c.469-.268.937-.539,1.409-.8a.4.4,0,0,1,.654.382c.007.785,0,1.571,0,2.356a.546.546,0,0,1-.331.514q-3.078,1.753-6.152,3.514c-.325.186-.65.374-.978.554-.375.206-.659.038-.663-.389C3483.982-234.749,3483.985-235.142,3483.985-235.535Zm7.335-4.768c-.125.068-.2.108-.276.151-1.946,1.111-3.886,2.232-5.843,3.325a.7.7,0,0,0-.438.766c.036.356.008.718.008,1.119l1-.571q2.669-1.524,5.336-3.05c.092-.053.213-.079.211-.233C3491.316-239.283,3491.32-239.769,3491.32-240.3Z" transform="translate(-220.898 -90.611)" fill="#fff"/>
    <path id="Path_570" data-name="Path 570" d="M3432.129-124.191q0,1.086,0,2.172a1.208,1.208,0,0,1-.023.285.357.357,0,0,1-.384.288.353.353,0,0,1-.356-.29,1.442,1.442,0,0,1-.022-.312q0-2.146,0-4.291a1.354,1.354,0,0,1,.023-.312.349.349,0,0,1,.358-.286.354.354,0,0,1,.382.289,1.21,1.21,0,0,1,.022.286Q3432.13-125.277,3432.129-124.191Z" transform="translate(-171.945 -197.034)" fill="#fff"/>
  </g>
</svg>
