<svg xmlns="http://www.w3.org/2000/svg" width="33.012" height="32.994" viewBox="0 0 33.012 32.994">
  <g id="Group_353" data-name="Group 353" transform="translate(-479.49 -180.707)">
    <path id="Path_532" data-name="Path 532" d="M505.282,213.7c-.291-.062-.583-.119-.873-.188a6.554,6.554,0,0,1-4.845-8.039c.034-.135.072-.269.117-.4.16-.467.161-.466-.26-.691-1.722-.921-3.447-1.836-5.163-2.767-.227-.123-.335-.1-.484.109a7.787,7.787,0,0,1-4.861,3.185,7.894,7.894,0,0,1-8.358-3.774,7.784,7.784,0,0,1-.2-7.5.789.789,0,0,1,.432-.453.6.6,0,0,1,.654.142.606.606,0,0,1,.142.71,12.454,12.454,0,0,0-.53,1.345,6.671,6.671,0,0,0,.548,4.973,3.925,3.925,0,0,1,3.049-2.453,3.408,3.408,0,0,1-.537-1.288,4.152,4.152,0,0,1,.8-3.576,3.3,3.3,0,0,1,5.3.572,4.216,4.216,0,0,1-.03,4.1c-.029.056-.056.114-.1.2a3.916,3.916,0,0,1,3.036,2.451,6.014,6.014,0,0,0,.749-2.3,6.516,6.516,0,0,0-5.52-7.332,6.308,6.308,0,0,0-3.74.518c-.137.062-.27.134-.41.185a.627.627,0,0,1-.839-.316.634.634,0,0,1,.313-.845,7.307,7.307,0,0,1,1.705-.662,7.793,7.793,0,0,1,8.38,3.065c.152.21.253.264.5.127q2.643-1.439,5.307-2.839c.23-.121.263-.226.175-.468a6.414,6.414,0,0,1,0-4.445c.164-.466.495-.662.879-.525.357.128.5.484.338.943a5.248,5.248,0,0,0,.259,4.215c.031.062.044.145.154.18a3.109,3.109,0,0,1,2.217-1.877,3.634,3.634,0,0,1-.207-2.8,2.683,2.683,0,0,1,5.2.49,3.642,3.642,0,0,1-.321,2.31,3.135,3.135,0,0,1,2.226,1.937,4.566,4.566,0,0,0,.651-1.807,5.258,5.258,0,0,0-4.6-6.058,5.055,5.055,0,0,0-2.16.2,4.94,4.94,0,0,1-.495.139.627.627,0,0,1-.768-.415.634.634,0,0,1,.381-.79,5.584,5.584,0,0,1,1.455-.4,6.56,6.56,0,0,1,7.017,3.94,6.283,6.283,0,0,1,.463,1.7,2.84,2.84,0,0,0,.065.278v1.16c-.023.1-.054.205-.068.31a6.552,6.552,0,0,1-6.218,5.672,6.418,6.418,0,0,1-5.574-2.664c-.109-.143-.176-.255-.4-.133q-2.715,1.474-5.446,2.918c-.158.084-.217.152-.144.338a7.734,7.734,0,0,1,0,5.809c-.068.174-.04.253.131.344q2.73,1.446,5.448,2.915c.189.1.268.057.385-.1a6.48,6.48,0,0,1,6.23-2.644,5.306,5.306,0,0,1,1.428.372.642.642,0,0,1,.418.825.651.651,0,0,1-.814.392c-.136-.031-.268-.078-.4-.119a5.171,5.171,0,0,0-2.191-.2,5.269,5.269,0,0,0-4.637,5.5,5,5,0,0,0,.7,2.365,3.177,3.177,0,0,1,2.249-1.944,3.382,3.382,0,0,1-.329-2.321,2.546,2.546,0,0,1,1.961-2.186,2.488,2.488,0,0,1,2.683.8,3.273,3.273,0,0,1,.444,3.481c-.045.125-.163.229.073.295a3.04,3.04,0,0,1,2.026,1.79c.005.012.035.012.068.022.03-.051.065-.1.093-.159a5.2,5.2,0,0,0,.335-4,2.148,2.148,0,0,1-.153-.589.594.594,0,0,1,.423-.616.584.584,0,0,1,.711.223,1.6,1.6,0,0,1,.168.344,11.052,11.052,0,0,1,.394,1.582v1.225c-.021.1-.049.2-.062.308a6.57,6.57,0,0,1-4.78,5.443c-.36.093-.725.163-1.088.243Zm-18.088-9.927a6.732,6.732,0,0,0,4.719-1.832.364.364,0,0,0,.148-.3,2.45,2.45,0,0,0-1.216-2.105,7.731,7.731,0,0,0-1.86-.6.4.4,0,0,0-.277.056,3.273,3.273,0,0,1-2.683,0,.533.533,0,0,0-.372-.042c-.392.109-.79.2-1.179.319a2.477,2.477,0,0,0-1.809,2.291.419.419,0,0,0,.134.369A6.532,6.532,0,0,0,487.193,203.774Zm18.46-11.216a5.471,5.471,0,0,0,3.54-1.136.4.4,0,0,0,.2-.3,1.777,1.777,0,0,0-1.152-1.793c-.281-.1-.578-.159-.863-.251a.684.684,0,0,0-.493.027,2.392,2.392,0,0,1-1.73.058,1.313,1.313,0,0,0-.957-.014c-.1.037-.207.054-.31.083a1.793,1.793,0,0,0-1.434,1.784.421.421,0,0,0,.185.4A5.135,5.135,0,0,0,505.653,192.558Zm.123,19.851a5.407,5.407,0,0,0,3.417-1.136.4.4,0,0,0,.2-.3,1.779,1.779,0,0,0-1.181-1.8c-.272-.095-.558-.15-.833-.238a.685.685,0,0,0-.493.026,2.344,2.344,0,0,1-1.7.067,1.5,1.5,0,0,0-1.05-.006c-.091.031-.186.05-.279.077a1.784,1.784,0,0,0-1.4,1.771.422.422,0,0,0,.184.4A5.237,5.237,0,0,0,505.776,212.409Zm-16.371-16.785c-.012-.182-.019-.364-.036-.546a2.019,2.019,0,0,0-3.94-.408,3.932,3.932,0,0,0-.073,1.533,2.016,2.016,0,0,0,2.889,1.582A2.124,2.124,0,0,0,489.406,195.625Zm17.941-9.324c-.007-.139,0-.279-.022-.417a1.407,1.407,0,0,0-2.784-.082,2.817,2.817,0,0,0,0,1.024,1.409,1.409,0,0,0,2.384.747A1.565,1.565,0,0,0,507.346,186.3Zm0,19.853c-.007-.139,0-.279-.022-.417a1.407,1.407,0,0,0-2.784-.084,2.821,2.821,0,0,0,0,1.024,1.369,1.369,0,0,0,1.086,1.137,1.4,1.4,0,0,0,1.462-.586A1.715,1.715,0,0,0,507.346,206.154Z" transform="translate(0)" fill="#4e4e4e"/>
    <path id="Path_533" data-name="Path 533" d="M506.5,315.177a.657.657,0,0,1-.626-.678.632.632,0,0,1,.66-.6.656.656,0,0,1,.617.654A.665.665,0,0,1,506.5,315.177Z" transform="translate(-24.252 -122.438)" fill="#4e4e4e"/>
    <path id="Path_534" data-name="Path 534" d="M747.7,202.187a.64.64,0,1,1-.626.649A.653.653,0,0,1,747.7,202.187Z" transform="translate(-245.981 -19.746)" fill="#4e4e4e"/>
    <path id="Path_535" data-name="Path 535" d="M852.229,448.745a.641.641,0,1,1-.628-.64A.652.652,0,0,1,852.229,448.745Z" transform="translate(-341.47 -245.811)" fill="#4e4e4e"/>
  </g>
</svg>
