<svg xmlns="http://www.w3.org/2000/svg" width="35.273" height="35.294" viewBox="0 0 35.273 35.294">
  <g id="Group_376" data-name="Group 376" transform="translate(-2800.88 -15.786)">
    <path id="Path_550" data-name="Path 550" d="M2910.226,172.334a2.356,2.356,0,0,1-1.4-.976,2.044,2.044,0,0,1,.8-2.917.382.382,0,0,0,.258-.411c-.017-.447-.018-.9,0-1.343.009-.232-.07-.285-.291-.283q-2.221.013-4.443,0a3.437,3.437,0,0,1-3.491-3.019,3.257,3.257,0,0,1,1.105-2.97c.209-.192.175-.257-.012-.427a3.42,3.42,0,0,1-.01-5.069c.2-.181.221-.256.005-.449a3.4,3.4,0,0,1-.873-3.808A3.446,3.446,0,0,1,2905,148.5q5.58-.018,11.16,0a3.456,3.456,0,0,1,3.124,2.166,3.4,3.4,0,0,1-.856,3.784c-.209.192-.237.271-.01.48a3.4,3.4,0,0,1,0,5.04c-.229.211-.2.289.011.48a3.392,3.392,0,0,1,.855,3.783,3.476,3.476,0,0,1-3.158,2.169c-1.515.014-3.031.01-4.546,0-.252,0-.34.054-.326.319.023.458.009.918,0,1.377a.273.273,0,0,0,.162.3,1.944,1.944,0,0,1,1.194,2.055,1.985,1.985,0,0,1-1.612,1.83.371.371,0,0,0-.086.052Zm.356-12.816c1.8,0,3.6.006,5.4,0a2.067,2.067,0,1,0,.01-4.129q-5.421-.009-10.842,0a2.62,2.62,0,0,0-.309.017,2.065,2.065,0,0,0,.333,4.115C2906.979,159.522,2908.781,159.517,2910.582,159.517Zm-.006-5.512c1.813,0,3.625.008,5.438,0a2.066,2.066,0,1,0-.046-4.128q-5.386-.007-10.773,0a3.018,3.018,0,0,0-.343.016,2.064,2.064,0,0,0,.321,4.114C2906.974,154.01,2908.775,154.006,2910.576,154.005Zm.033,6.89h-4.1c-.5,0-1.011-.016-1.514.007a2.065,2.065,0,1,0,.2,4.124q5.386.006,10.772,0a2.682,2.682,0,0,0,.58-.062,2.06,2.06,0,0,0-.537-4.067C2914.211,160.89,2912.41,160.9,2910.609,160.9Zm.645,9.383a.683.683,0,1,0-.695.672A.706.706,0,0,0,2911.253,170.279Z" transform="translate(-92.052 -121.254)" fill="#4e4e4e"/>
    <path id="Path_551" data-name="Path 551" d="M2800.88,31.926a13.935,13.935,0,0,1,.407-1.731,7.076,7.076,0,0,1,6.654-4.736c.286,0,.381-.087.449-.356a11.459,11.459,0,0,1,8.391-8.817c4.7-1.308,8.793-.014,12.138,3.547a10.68,10.68,0,0,1,2.125,3.435.751.751,0,0,0,.4.429,8.4,8.4,0,0,1-1.8,15.726.782.782,0,0,1-.855-.188.673.673,0,0,1,.351-1.1,9.737,9.737,0,0,0,1.559-.532,6.784,6.784,0,0,0,4.053-6.372,6.692,6.692,0,0,0-4.05-6.36,1.623,1.623,0,0,1-.879-.932,10.5,10.5,0,0,0-10.976-6.69,10.613,10.613,0,0,0-9.129,8.141c-.053.247-.089.5-.14.744-.124.607-.372.8-.984.733a5.691,5.691,0,0,0-2.734.368A5.756,5.756,0,0,0,2802.274,33a5.69,5.69,0,0,0,4.512,5.131,2.9,2.9,0,0,1,.4.1.665.665,0,0,1,.451.816.692.692,0,0,1-.793.5,7.126,7.126,0,0,1-5.893-6.057c-.011-.089.009-.187-.07-.257Z" fill="#4e4e4e"/>
    <path id="Path_552" data-name="Path 552" d="M2800.88,393.354a.857.857,0,0,1,.922-.556q5.9.012,11.808,0a1.212,1.212,0,0,1,.442.049.675.675,0,0,1,0,1.28,1.236,1.236,0,0,1-.442.049q-5.9,0-11.807,0a.854.854,0,0,1-.921-.556Z" transform="translate(0 -344.479)" fill="#4e4e4e"/>
    <path id="Path_553" data-name="Path 553" d="M3057.682,394.207h-5.82c-.092,0-.184,0-.276,0a.689.689,0,1,1,.01-1.374c.172-.008.344,0,.517,0h11.435a2.863,2.863,0,0,1,.378.01.681.681,0,0,1-.009,1.358,2.733,2.733,0,0,1-.344.009Z" transform="translate(-228.404 -344.505)" fill="#4e4e4e"/>
    <path id="Path_554" data-name="Path 554" d="M2942.12,243.205c.861,0,1.722-.012,2.583,0a.672.672,0,0,1,.7.915.609.609,0,0,1-.465.414,2.34,2.34,0,0,1-.444.042q-2.394,0-4.787,0a2.19,2.19,0,0,1-.309-.016.666.666,0,0,1-.639-.712.641.641,0,0,1,.674-.638c.9-.017,1.791-.005,2.686-.005Z" transform="translate(-125.981 -207.791)" fill="#4e4e4e"/>
    <path id="Path_555" data-name="Path 555" d="M3029.856,243.36a.674.674,0,1,1,.01,1.348.674.674,0,1,1-.01-1.348Z" transform="translate(-208.602 -207.936)" fill="#4e4e4e"/>
    <path id="Path_556" data-name="Path 556" d="M3058.457,244.049a.69.69,0,0,1-.694.665.674.674,0,0,1-.666-.686.667.667,0,0,1,.687-.662A.685.685,0,0,1,3058.457,244.049Z" transform="translate(-234.108 -207.941)" fill="#4e4e4e"/>
    <path id="Path_557" data-name="Path 557" d="M2942.112,179.33c.861,0,1.722-.012,2.583,0a.672.672,0,0,1,.706.911.609.609,0,0,1-.5.425,2.71,2.71,0,0,1-.41.035q-2.394,0-4.788,0a2.308,2.308,0,0,1-.309-.015.667.667,0,0,1-.644-.708.646.646,0,0,1,.671-.643c.539-.021,1.079-.01,1.618-.012.356,0,.712,0,1.068,0Z" transform="translate(-125.977 -149.428)" fill="#4e4e4e"/>
    <path id="Path_558" data-name="Path 558" d="M3029.877,179.495a.686.686,0,0,1,.67.686.7.7,0,0,1-.7.664.681.681,0,0,1-.665-.691A.669.669,0,0,1,3029.877,179.495Z" transform="translate(-208.604 -149.582)" fill="#4e4e4e"/>
    <path id="Path_559" data-name="Path 559" d="M3057.775,179.487a.687.687,0,0,1,.678.679.7.7,0,0,1-.69.673.678.678,0,0,1-.671-.684A.669.669,0,0,1,3057.775,179.487Z" transform="translate(-234.103 -149.575)" fill="#4e4e4e"/>
    <path id="Path_560" data-name="Path 560" d="M2942.051,307.038c.861,0,1.722-.01,2.583,0,.576.009.9.411.743.887a.611.611,0,0,1-.509.453,2.694,2.694,0,0,1-.411.033q-2.393,0-4.787,0a2.257,2.257,0,0,1-.376-.028.654.654,0,0,1-.575-.663.639.639,0,0,1,.58-.657c.353-.034.709-.025,1.065-.028.563,0,1.125,0,1.687,0Z" transform="translate(-125.944 -266.116)" fill="#4e4e4e"/>
    <path id="Path_561" data-name="Path 561" d="M3030.548,307.881a.692.692,0,0,1-.679.681.675.675,0,1,1-.013-1.35A.693.693,0,0,1,3030.548,307.881Z" transform="translate(-208.603 -266.278)" fill="#4e4e4e"/>
    <path id="Path_562" data-name="Path 562" d="M3058.458,307.877a.692.692,0,0,1-.679.681.675.675,0,1,1-.011-1.351A.694.694,0,0,1,3058.458,307.877Z" transform="translate(-234.106 -266.273)" fill="#4e4e4e"/>
  </g>
</svg>
