<svg xmlns="http://www.w3.org/2000/svg" width="12.91" height="12.903" viewBox="0 0 12.91 12.903">
  <g id="Group_419" data-name="Group 419" transform="translate(-3639.793 -138.256)">
    <path id="Path_608" data-name="Path 608" d="M3639.793,144.309c.032-.236.053-.475.1-.708a6.274,6.274,0,0,1,3.869-4.834,6.4,6.4,0,0,1,8.428,3.471,6.28,6.28,0,0,1-.575,6.02.5.5,0,1,1-.846-.541,5.375,5.375,0,0,0,.842-2.162,5.307,5.307,0,0,0-1.23-4.361,5.15,5.15,0,0,0-3.342-1.858,5.285,5.285,0,0,0-5.013,1.953,5.042,5.042,0,0,0-1.21,3.662,5.448,5.448,0,0,0,8.205,4.437.5.5,0,0,1,.7.715.6.6,0,0,1-.183.151,6.383,6.383,0,0,1-2.78.881.2.2,0,0,0-.109.023h-.806a.634.634,0,0,0-.1-.021,6.232,6.232,0,0,1-.907-.132,6.457,6.457,0,0,1-4.94-5.17c-.04-.239-.066-.48-.1-.721Z" fill="#d44000"/>
    <path id="Path_609" data-name="Path 609" d="M3.274,1.323c0,.281,0,.562,0,.843,0,.085.027.1.107.1.537,0,1.074,0,1.611,0a.505.505,0,1,1,0,1.007c-.533,0-1.066,0-1.6,0-.1,0-.123.031-.122.126q.006.818,0,1.636a.5.5,0,0,1-.944.243A.564.564,0,0,1,2.267,5c0-.524-.005-1.049,0-1.573,0-.134-.04-.155-.16-.153-.532.006-1.065.006-1.6,0A.5.5,0,1,1,.525,2.267c.533,0,1.066-.005,1.6,0,.126,0,.148-.037.147-.153-.006-.537,0-1.074,0-1.611A.5.5,0,0,1,3.213.264.546.546,0,0,1,3.275.53C3.273.794,3.274,1.058,3.274,1.323Z" transform="translate(3642.322 144.712) rotate(-45)" fill="#d44000"/>
  </g>
</svg>
