<svg id="trash-bin" xmlns="http://www.w3.org/2000/svg" width="14.219" height="16.253" viewBox="0 0 14.219 16.253">
  <g id="Group_45" data-name="Group 45" transform="translate(0)">
    <path id="Path_468" data-name="Path 468" d="M319.546,190.183l-.592,7.02a.238.238,0,0,0,.474.04l.592-7.02a.238.238,0,0,0-.474-.04Z" transform="translate(-309.844 -183.935)" fill="#fff"/>
    <path id="Path_469" data-name="Path 469" d="M159.6,189.966a.238.238,0,0,0-.217.257l.592,7.02a.238.238,0,0,0,.474-.04l-.592-7.02A.238.238,0,0,0,159.6,189.966Z" transform="translate(-155.342 -183.935)" fill="#fff"/>
    <path id="Path_470" data-name="Path 470" d="M248.5,190.2v7.02a.238.238,0,1,0,.476,0V190.2a.238.238,0,1,0-.476,0Z" transform="translate(-241.628 -183.935)" fill="#fff"/>
    <path id="Path_471" data-name="Path 471" d="M45.159,1.839H41.415V1a1,1,0,0,0-1-1H37.882a1,1,0,0,0-1,1v.837H33.136a1.1,1.1,0,0,0,0,2.2h.256l.891,10.557a1.813,1.813,0,0,0,1.807,1.661h6.116a1.813,1.813,0,0,0,1.807-1.661l.123-1.464a.238.238,0,0,0-.474-.04l-.123,1.464a1.345,1.345,0,0,1-1.332,1.225H36.09a1.345,1.345,0,0,1-1.332-1.225L33.87,4.035h.7a.238.238,0,0,0,0-.476H33.136a.622.622,0,1,1,0-1.244H45.159a.622.622,0,1,1,0,1.244h-9.47a.238.238,0,1,0,0,.476h8.736l-.67,7.943a.238.238,0,0,0,.217.257h.02a.238.238,0,0,0,.237-.218L44.9,4.035h.256a1.1,1.1,0,1,0,0-2.2Zm-4.22,0H37.356V1a.527.527,0,0,1,.526-.526h2.531A.527.527,0,0,1,40.939,1v.837Z" transform="translate(-32.038)" fill="#fff"/>
  </g>
</svg>
